<svg width="159" height="92" viewBox="0 0 159 92" fill="none" xmlns="http://www.w3.org/2000/svg">
<mask id="mask0_203_237" style="mask-type:luminance" maskUnits="userSpaceOnUse" x="0" y="0" width="59" height="88">
<path d="M5.49053 0C2.67225 0 0.39209 2.28016 0.39209 5.09844V82.5601C0.39209 85.3784 2.67225 87.6585 5.49053 87.6585H53.7296C56.5479 87.6585 58.8281 85.3784 58.8281 82.5601V5.09844C58.8281 2.28016 56.5479 0 53.7296 0H5.49053Z" fill="white"/>
</mask>
<g mask="url(#mask0_203_237)">
<path d="M58.8281 -0.000488281H0.39209V87.6581H58.8281V-0.000488281Z" fill="url(#paint0_linear_203_237)"/>
</g>
<path d="M57.4963 58.562C53.3737 49.943 43.186 45.6654 34.1565 41.0139C21.6248 34.5565 21.6065 30.8535 21.6065 30.8535C19.8189 44.4433 23.385 46.842 39.2276 54.0017C41.3983 54.9867 50.3457 58.9542 50.3457 68.5127C50.3457 76.8854 43.5599 83.6803 35.178 83.6803C30.9643 83.6803 27.161 81.9656 24.4157 79.193C27.7812 78.4815 30.2985 75.4991 30.2985 71.9238C30.2985 67.8195 26.9695 64.4996 22.8743 64.4996C18.77 64.4996 15.441 67.8286 15.441 71.9238L15.4501 72.1609L15.3862 72.1974C15.8423 84.1819 25.4737 91.2778 37.5676 91.2778C49.9535 91.2778 59.9953 81.236 59.9953 68.8501C59.9953 65.138 59.0924 61.6357 57.4963 58.562Z" fill="white"/>
<path d="M41.3166 42.2266C56.0008 49.5413 58.8556 56.8287 58.8556 56.8287C61.5188 39.1529 45.9955 33.7353 33.5276 27.0772C21.087 20.4374 21.1235 16.7344 21.1235 16.7344C19.1443 30.2968 23.7958 33.4981 41.3166 42.2266Z" fill="white"/>
<path d="M36.154 22.9002C47.1627 28.3817 49.2969 33.845 49.2969 33.845C51.2943 20.5927 39.6655 16.534 30.3168 11.545C20.9955 6.56516 21.0229 3.79248 21.0229 3.79248C19.5362 13.9529 23.0203 16.3607 36.154 22.9002Z" fill="white"/>
<path d="M68.0034 57.4857L68.8972 55.6068C70.1559 56.7378 72.2992 57.5586 74.47 57.5586C77.3886 57.5586 78.6472 56.4277 78.6472 54.9501C78.6472 50.8185 68.4139 53.427 68.4139 47.152C68.4139 44.5435 70.4386 42.3271 74.8804 42.3271C76.8596 42.3271 78.9117 42.8561 80.3072 43.8229L79.5137 45.7565C78.0453 44.8171 76.3762 44.3793 74.8804 44.3793C72.0074 44.3793 70.7761 45.5832 70.7761 47.0608C70.7761 51.1833 81.0095 48.6022 81.0095 54.8042C81.0095 57.3853 78.93 59.6108 74.47 59.6108C71.8888 59.6108 69.3533 58.7443 68.0034 57.4857Z" fill="white"/>
<path d="M95.3013 55.1964H86.3266L84.466 59.4193H81.9761L89.6283 42.5278H92.0179L99.6884 59.4193H97.1528L95.3013 55.1964ZM94.4531 53.2628L90.8049 44.9904L87.1566 53.2628H94.4531Z" fill="white"/>
<path d="M117.866 59.4193L117.839 47.1155L111.737 57.3671H110.624L104.523 47.1794V59.4193H102.206V42.5278H104.185L111.226 54.4029L118.176 42.5278H120.155L120.183 59.4193H117.866Z" fill="white"/>
<path d="M136.016 55.1964H127.042L125.181 59.4193H122.7L130.352 42.5278H132.742L140.412 59.4193H137.877L136.016 55.1964ZM135.168 53.2628L131.52 44.9904L127.872 53.2628H135.168Z" fill="white"/>
<path d="M153.993 55.1964H145.018L143.157 59.4193H140.667L148.32 42.5278H150.709L158.38 59.4193H155.844L153.993 55.1964ZM153.154 53.2628L149.505 44.9904L145.857 53.2628H153.154Z" fill="white"/>
<mask id="mask1_203_237" style="mask-type:luminance" maskUnits="userSpaceOnUse" x="85" y="9" width="74" height="29">
<path d="M106.337 31.8392C105.808 31.6294 105.343 31.3376 104.933 30.9545C104.522 30.5714 104.194 30.1063 103.939 29.5591C103.683 29.0027 103.556 28.3734 103.556 27.6711V22.755C103.556 22.0345 103.683 21.3961 103.939 20.8397C104.194 20.2834 104.522 19.8182 104.933 19.4443C105.343 19.0612 105.808 18.7693 106.328 18.5595C106.857 18.3498 107.386 18.2312 107.934 18.1947C108.472 18.1765 109.019 18.2586 109.548 18.441C110.086 18.6234 110.56 18.897 110.971 19.271C111.39 19.6449 111.719 20.1192 111.974 20.6938C112.229 21.2775 112.357 21.9616 112.357 22.755V32.1858H107.924C107.405 32.1584 106.866 32.049 106.337 31.8392ZM85.2778 14.4826V27.744C85.2778 29.0118 85.5059 30.2066 85.971 31.3193C86.4362 32.4321 87.0655 33.4171 87.8772 34.2835C88.6798 35.15 89.6284 35.8432 90.7046 36.3722C91.7352 36.8829 92.848 37.1839 94.0337 37.2934V37.3116L94.1249 37.3025L94.1978 37.3116V37.2934C95.3744 37.2113 96.4962 36.9741 97.5633 36.5728C98.6852 36.1533 99.807 35.4054 100.938 34.32C101.95 35.2777 103.063 36.0347 104.267 36.5728C105.471 37.1201 106.702 37.3846 107.979 37.3846L121.624 37.3298V37.2842C122.727 37.1748 123.785 36.8829 124.807 36.3813C125.874 35.8523 126.868 35.1683 127.798 34.32C128.811 35.2777 129.933 36.0165 131.146 36.5363C132.359 37.0562 133.563 37.3207 134.757 37.339C135.97 37.2478 137.174 36.9741 138.36 36.5272C139.546 36.0712 140.668 35.3415 141.716 34.3291C142.711 35.2321 143.814 35.9526 145.027 36.4907C146.24 37.0289 147.472 37.3116 148.721 37.3481C149.989 37.2751 151.193 36.9741 152.333 36.4543C153.473 35.9253 154.476 35.2412 155.352 34.3748C156.218 33.5083 156.911 32.5141 157.431 31.3832C157.942 30.2522 158.207 29.0392 158.207 27.7532V17.538C155.343 17.538 153.017 19.8638 153.017 22.7277V27.6437C153.017 28.3551 152.889 28.9753 152.634 29.5317C152.378 30.0789 152.05 30.5532 151.64 30.9271C151.229 31.3102 150.773 31.6021 150.253 31.7936C149.733 31.9943 149.204 32.1037 148.666 32.122C148.119 32.1037 147.59 31.9943 147.079 31.7936C146.559 31.593 146.103 31.3011 145.693 30.9271C145.283 30.5441 144.954 30.0789 144.717 29.5317C144.471 28.9753 144.352 28.346 144.352 27.6437V17.5289C141.47 17.5289 139.135 19.8638 139.135 22.7459V27.6346C139.135 28.346 139.008 28.9753 138.752 29.5408C138.497 30.1063 138.168 30.5714 137.758 30.9545C137.348 31.3376 136.882 31.6294 136.353 31.821C135.824 32.0216 135.295 32.122 134.748 32.122C134.201 32.122 133.672 32.0216 133.143 31.821C132.614 31.6203 132.149 31.3285 131.748 30.9545C131.337 30.5714 131.009 30.1063 130.753 29.5408C130.498 28.9753 130.37 28.346 130.37 27.6346V17.5289C127.506 17.5289 125.181 19.8547 125.181 22.7186V27.6346C125.181 28.273 125.08 28.8476 124.88 29.3584C124.679 29.8783 124.405 30.3161 124.068 30.69C123.721 31.064 123.329 31.3649 122.873 31.6021C122.417 31.8392 121.952 31.9943 121.459 32.0672V32.122H117.601V22.6091C117.601 21.2866 117.346 20.0462 116.844 18.8879C116.334 17.7296 115.65 16.7172 114.783 15.8416C113.917 14.9751 112.895 14.282 111.728 13.7803C110.56 13.2696 109.311 13.0142 107.988 13.0142C106.666 13.0142 105.425 13.2696 104.267 13.7803C103.109 14.2911 102.096 14.9751 101.221 15.8416C100.345 16.7081 99.6611 17.7296 99.1595 18.8879C98.6487 20.0462 98.3933 21.2866 98.3933 22.6091V27.662C98.3933 28.419 98.2839 29.0757 98.065 29.6229C97.8461 30.1701 97.5451 30.617 97.1712 30.9819C96.7881 31.3467 96.3321 31.6112 95.7939 31.7936C95.3105 31.9578 94.7724 32.0581 94.2069 32.1037V32.0672C93.7144 31.9943 93.2493 31.8392 92.7932 31.6021C92.3372 31.3649 91.945 31.064 91.6076 30.69C91.2701 30.3161 90.9965 29.8783 90.7958 29.3584C90.5861 28.8385 90.4857 28.2639 90.4857 27.6346V9.29297C87.6036 9.29297 85.2778 11.6187 85.2778 14.4826Z" fill="white"/>
</mask>
<g mask="url(#mask1_203_237)">
<path d="M158.188 9.29248H85.2778V37.3932H158.188V9.29248Z" fill="white"/>
</g>
<mask id="mask2_203_237" style="mask-type:luminance" maskUnits="userSpaceOnUse" x="68" y="17" width="17" height="22">
<path d="M77.3795 17.5753C76.2394 17.703 75.1632 18.0313 74.1417 18.5694C73.1202 19.1075 72.2446 19.7825 71.4876 20.5942C70.7306 21.4151 70.1651 22.3454 69.7729 23.4034C69.3807 24.4614 69.253 25.565 69.3807 26.7233C69.4719 27.5259 69.7364 28.3924 70.1833 29.3135C70.6302 30.2347 71.3052 31.238 72.2264 32.3051L68.3774 33.7827V38.2791C69.7182 37.8322 71.0224 37.4583 72.3084 37.1573C73.5944 36.8563 74.8805 36.5918 76.1665 36.3729C77.4525 36.154 78.7567 35.9625 80.0701 35.7983C81.3835 35.6342 82.7425 35.4791 84.147 35.3241L84.7216 35.2602V35.2328C84.2291 34.6126 83.8187 33.9377 83.5086 33.1807C83.235 32.524 83.0617 31.8308 82.9796 31.1012C82.6877 31.1377 82.405 31.1833 82.1223 31.2106C81.0278 31.3292 79.9515 31.2927 78.8844 31.1012C77.8173 30.9097 76.8414 30.4263 75.9658 29.6692C75.6101 29.3044 75.3091 28.8849 75.0446 28.4106C74.7801 27.9363 74.6251 27.4529 74.5704 26.9422C74.5339 26.6321 74.543 26.322 74.5977 25.9936C74.6433 25.6653 74.7437 25.3369 74.8987 24.9904C75.2453 24.206 75.7469 23.6223 76.4036 23.2574C77.0512 22.8926 77.7626 22.6646 78.5378 22.5734C79.0121 22.5187 79.4955 22.5095 79.9698 22.546C80.4532 22.5825 80.9092 22.6464 81.3379 22.7558C81.4747 22.0261 81.6024 21.3056 81.7209 20.6124C81.8395 19.9102 81.9581 19.1805 82.0767 18.4235C81.3105 18.0131 80.5444 17.7394 79.76 17.63C79.3131 17.5662 78.8662 17.5297 78.4102 17.5297C78.0544 17.5205 77.717 17.5388 77.3795 17.5753Z" fill="white"/>
</mask>
<g mask="url(#mask2_203_237)">
<path d="M84.7124 17.52H68.3682V38.2695H84.7124V17.52Z" fill="white"/>
</g>
<path d="M71.5879 71.4033V70.9382L71.6973 70.8287H72.6915L72.8009 70.9382V74.4314C72.8009 74.6412 72.8465 74.7962 72.9286 74.8783C73.0107 74.9604 73.1384 75.006 73.3208 75.006H73.7312C74.0231 75.006 74.1599 75.1884 74.1599 75.5532C74.1599 75.7721 74.1234 75.9181 74.0596 75.9819C73.9957 76.0457 73.8772 76.0822 73.7312 76.0822H72.8557C72.5091 76.0822 72.2263 76.0184 72.0348 75.8998C71.8342 75.7721 71.7065 75.5532 71.6426 75.2431C71.4876 75.3799 71.3143 75.4711 71.1045 75.5441C70.8947 75.608 70.6758 75.6444 70.4478 75.6444C70.1651 75.6444 69.9006 75.608 69.6543 75.5259C69.4081 75.4438 69.1892 75.3252 69.0068 75.161C68.8243 74.9969 68.6784 74.7871 68.569 74.5317C68.4595 74.2763 68.4048 73.9662 68.4048 73.6105C68.4048 73.191 68.4686 72.8444 68.5872 72.5617C68.7058 72.2789 68.8608 72.06 69.0615 71.8867C69.2621 71.7134 69.481 71.5949 69.7364 71.5219C69.9918 71.4489 70.2472 71.4125 70.5208 71.4125H71.5879V71.4033ZM69.5266 70.09L69.4172 69.9805V69.0411L69.5266 68.9316H70.4296L70.539 69.0411V69.9805L70.4296 70.09H69.5266ZM70.5755 74.5591C70.9221 74.5591 71.1775 74.4588 71.3416 74.2672C71.5058 74.0666 71.5879 73.7838 71.5879 73.4008V72.4887H70.6302C70.3201 72.4887 70.0739 72.5708 69.8823 72.7258C69.6908 72.8809 69.5996 73.1727 69.5996 73.5923C69.5996 73.9206 69.6817 74.1669 69.855 74.3219C70.0374 74.477 70.2745 74.5591 70.5755 74.5591ZM70.9312 70.09L70.8218 69.9805V69.0411L70.9312 68.9316H71.8342L71.9436 69.0411V69.9805L71.8342 70.09H70.9312Z" fill="white"/>
<path d="M76.1847 75.5264C76.0844 75.7361 75.9294 75.8821 75.7287 75.9642C75.5281 76.0462 75.2544 76.0827 74.9079 76.0827H73.9046C73.7587 76.0827 73.6492 76.0462 73.5762 75.9824C73.5033 75.9094 73.4668 75.7817 73.4668 75.572C73.4668 75.3622 73.5033 75.2163 73.5671 75.1342C73.6401 75.0521 73.7495 75.0065 73.8955 75.0065H74.5978C74.7254 75.0065 74.8258 74.9882 74.8987 74.9426C74.9626 74.9062 75.0173 74.8423 75.0538 74.7602C75.0903 74.6781 75.1085 74.5687 75.1085 74.441C75.1176 74.3042 75.1176 74.1492 75.1176 73.9485V71.7139L75.1724 71.6227L75.2909 71.6045H76.2121L76.3216 71.7139V74.3407C76.3216 74.5596 76.4036 74.7238 76.5678 74.8332C76.732 74.9518 76.9509 75.0065 77.2154 75.0065H77.3978C77.5437 75.0065 77.6441 75.043 77.717 75.1251C77.79 75.2071 77.8265 75.344 77.8265 75.5264C77.8265 75.7361 77.79 75.8821 77.7261 75.9642C77.6623 76.0462 77.5437 76.0827 77.3978 76.0827C77.1151 76.0827 76.8688 76.0462 76.659 75.9824C76.4766 75.9094 76.3124 75.7544 76.1847 75.5264ZM74.5157 78.1531L74.4062 78.0437V77.1042L74.5157 76.9948H75.4186L75.5281 77.1042V78.0437L75.4186 78.1531H74.5157ZM75.9202 78.1531L75.8108 78.0437V77.1042L75.9202 76.9948H76.8323L76.9418 77.1042V78.0437L76.8323 78.1531H75.9202Z" fill="white"/>
<path d="M80.0064 74.3321C80.0064 74.779 80.2709 74.9979 80.7908 74.9979C80.9458 74.9979 81.0735 74.9888 81.1738 74.9705C81.265 74.9523 81.3471 74.9158 81.4019 74.8611C81.4566 74.8063 81.4931 74.7243 81.5113 74.6148C81.5295 74.5054 81.5387 74.3594 81.5387 74.1679V72.5353L81.6481 72.4259H82.6423L82.7517 72.5353V74.3047C82.7517 74.5327 82.8247 74.706 82.9615 74.8155C83.0983 74.9249 83.2807 74.9796 83.5178 74.9796C83.6911 74.9796 83.8279 74.9705 83.9283 74.9432C84.0286 74.9158 84.1016 74.8702 84.1472 74.7881C84.1928 74.7151 84.2293 74.6057 84.2384 74.4689C84.2566 74.3321 84.2566 74.1497 84.2566 73.9216V71.6871L84.3661 71.5776H85.3602L85.4697 71.6871V74.6969C85.4697 75.1894 85.3693 75.5451 85.1596 75.7458C84.9498 75.9555 84.6032 76.0559 84.1198 76.0559H83.6547C83.3993 76.0559 83.1895 76.0103 83.0162 75.9099C82.8429 75.8096 82.7061 75.6728 82.6149 75.4904C82.5146 75.7002 82.3686 75.8461 82.1771 75.9282C81.9856 76.0103 81.7302 76.0559 81.4019 76.0559H80.9276C80.4168 76.0559 80.0702 75.8643 79.8787 75.4813C79.7784 75.691 79.6324 75.837 79.4409 75.9282C79.2494 76.0194 78.994 76.0559 78.6657 76.0559H77.4344C77.2884 76.0559 77.179 76.0194 77.106 75.9555C77.0331 75.8826 76.9966 75.7549 76.9966 75.5634C76.9966 75.3445 77.0331 75.1894 77.0969 75.1073C77.1608 75.0161 77.2793 74.9796 77.4253 74.9796H78.2917C78.5197 74.9796 78.6565 74.9249 78.7113 74.8063C78.766 74.6878 78.8025 74.4689 78.8025 74.1588V72.5262L78.9119 72.4167H79.9061L80.0155 72.5262V74.3321H80.0064Z" fill="white"/>
<path d="M87.2663 72.4892L87.1569 72.3797V71.5133L87.2663 71.4038H88.9081C89.51 71.4038 89.9843 71.5589 90.34 71.8598C90.6957 72.1608 90.869 72.6533 90.869 73.3374V74.3498C90.869 74.5595 90.9511 74.7237 91.1061 74.8332C91.2612 74.9517 91.4801 75.0065 91.7537 75.0065H91.9361C92.082 75.0065 92.1915 75.0429 92.2645 75.125C92.3374 75.2071 92.3739 75.3439 92.3739 75.5263C92.3739 75.7361 92.3374 75.882 92.2736 75.9641C92.2097 76.0462 92.1003 76.0827 91.9452 76.0827C91.6442 76.0827 91.3797 76.0462 91.1609 75.9641C90.942 75.882 90.7687 75.7179 90.6501 75.4625C90.5133 75.7088 90.3309 75.8729 90.1029 75.955C89.8748 76.0371 89.5739 76.0827 89.209 76.0827H86.7921L86.6826 75.9733V75.1159L86.7921 75.0065H88.7986C88.9901 75.0065 89.1452 74.9882 89.2638 74.9609C89.3823 74.9335 89.4644 74.8879 89.5283 74.8149C89.5921 74.7511 89.6286 74.6599 89.6468 74.5504C89.6651 74.441 89.6742 74.3133 89.6742 74.1491V73.4286C89.6742 73.1003 89.583 72.8631 89.4006 72.7081C89.2182 72.553 88.9445 72.48 88.5706 72.48H87.2663V72.4892Z" fill="white"/>
<path d="M94.2524 74.3311C94.2524 74.55 94.3345 74.7142 94.4987 74.8236C94.6629 74.9422 94.8818 74.9969 95.1554 74.9969H95.3378C95.4837 74.9969 95.5932 75.0334 95.6661 75.1155C95.7391 75.1976 95.7756 75.3344 95.7756 75.5168C95.7756 75.7266 95.7391 75.8725 95.6752 75.9546C95.6114 76.0367 95.4928 76.0731 95.3469 76.0731C95.0642 76.0731 94.8179 76.0367 94.6172 75.9728C94.4075 75.8999 94.2433 75.7539 94.1247 75.5168C94.0244 75.7266 93.8785 75.8725 93.6778 75.9546C93.4863 76.0367 93.2127 76.0731 92.8661 76.0731H92.0087C91.8628 76.0731 91.7534 76.0458 91.6895 76.0002C91.6166 75.9546 91.5801 75.8451 91.5801 75.6901C91.5801 75.5077 91.6166 75.3435 91.6804 75.2067C91.7442 75.0608 91.8628 74.9969 92.0179 74.9969H92.5377C92.6563 74.9969 92.7566 74.9787 92.8296 74.9422L92.9847 74.7689C93.0211 74.6868 93.0394 74.5865 93.0485 74.4588C93.0576 74.3311 93.0576 74.1761 93.0576 73.9845V71.7044L93.1671 71.5949H94.1612L94.2707 71.7044V74.3311H94.2524ZM93.1397 70.5187L93.0303 70.4092V69.4698L93.1397 69.3604H94.1795L94.2889 69.4698V70.4092L94.1795 70.5187H93.1397Z" fill="white"/>
<path d="M94.8638 75.5355C94.8638 75.3257 94.9003 75.1798 94.9641 75.1068C95.0371 75.0338 95.1465 74.9973 95.2924 74.9973H96.3504V73.7752C96.3504 73.3374 96.4143 72.9634 96.5328 72.6625C96.6514 72.3615 96.8156 72.1152 97.0162 71.9328C97.2169 71.7504 97.4449 71.6136 97.7094 71.5315C97.9739 71.4494 98.2384 71.4038 98.5211 71.4038C98.8404 71.4038 99.1414 71.4403 99.415 71.5315C99.6886 71.6136 99.9257 71.7413 100.126 71.9146C100.327 72.0879 100.482 72.3067 100.592 72.5895C100.701 72.8631 100.756 73.2006 100.756 73.5836C100.756 73.8573 100.719 74.1218 100.637 74.3954C100.555 74.6599 100.473 74.8605 100.382 75.0065H101.485C101.64 75.0065 101.75 75.0429 101.814 75.1159C101.878 75.1889 101.914 75.3257 101.914 75.5446C101.914 75.7361 101.878 75.882 101.805 75.9641C101.732 76.0462 101.622 76.0918 101.485 76.0918H100.436C100.592 76.3016 100.665 76.5479 100.665 76.8488C100.665 77.3414 100.473 77.7244 100.099 77.9889C99.7251 78.2534 99.2052 78.3902 98.5576 78.3902C98.2293 78.3902 97.9283 78.3629 97.6547 78.299C97.3811 78.2352 97.153 78.144 96.9615 78.0072C96.77 77.8703 96.6149 77.6971 96.5146 77.4873C96.4052 77.2775 96.3596 77.0221 96.3596 76.712V76.0827H95.3016C95.0006 76.0827 94.8638 75.9003 94.8638 75.5355ZM98.5394 72.4892C98.2384 72.4892 98.0013 72.5895 97.828 72.7901C97.6547 72.9908 97.5635 73.2827 97.5635 73.6657V75.0065H98.6306C98.7948 75.0065 98.9407 74.97 99.0501 74.897C99.1687 74.8241 99.269 74.7237 99.342 74.6052C99.415 74.4866 99.4697 74.3498 99.5062 74.1947C99.5427 74.0397 99.5609 73.8846 99.5609 73.7205C99.5609 73.31 99.4697 72.9999 99.2964 72.7993C99.114 72.5895 98.8677 72.4892 98.5394 72.4892ZM98.5394 77.3322C98.8769 77.3322 99.114 77.2775 99.2599 77.1681C99.3967 77.0586 99.4697 76.9036 99.4697 76.7029C99.4697 76.5935 99.4606 76.5023 99.4332 76.4202C99.4058 76.3381 99.3602 76.2651 99.2782 76.2104C99.2052 76.1557 99.0958 76.1101 98.9681 76.0827C98.8313 76.0553 98.6671 76.0371 98.4573 76.0371H97.5635V76.6117C97.5544 77.0951 97.8827 77.3322 98.5394 77.3322Z" fill="white"/>
<path d="M101.467 76.083C101.321 76.083 101.212 76.0465 101.139 75.9827C101.066 75.9097 101.029 75.7729 101.029 75.5631C101.029 75.3625 101.066 75.2165 101.13 75.1345C101.203 75.0524 101.312 75.0068 101.458 75.0068H101.987C102.169 75.0068 102.297 74.9703 102.379 74.8882C102.461 74.8061 102.498 74.6602 102.498 74.4413V68.8595L102.607 68.75H103.601L103.711 68.8595V74.7332C103.711 75.1983 103.61 75.5449 103.419 75.7638C103.227 75.9827 102.908 76.0921 102.461 76.0921H101.467V76.083Z" fill="white"/>
<path d="M106.347 75.9739L106.237 76.0833H105.243L105.134 75.9739V68.8507L105.243 68.7412H106.237L106.347 68.8507V75.9739Z" fill="white"/>
<path d="M116.771 74.8786C116.854 74.7965 116.899 74.6506 116.899 74.4317V71.7137L117.009 71.6043H118.003L118.112 71.7137V74.7235C118.112 75.1887 118.012 75.5353 117.82 75.7542C117.629 75.973 117.291 76.0825 116.826 76.0825H111.436C110.98 76.0825 110.661 75.973 110.469 75.7542C110.278 75.5353 110.177 75.1887 110.177 74.7144V72.3978L110.287 72.2883H111.281L111.39 72.3978V74.4408C111.39 74.6597 111.427 74.8056 111.518 74.8877C111.6 74.9698 111.728 75.0154 111.91 75.0154H116.379C116.562 74.9971 116.689 74.9607 116.771 74.8786ZM113.023 71.1573L112.913 71.0479V70.1085L113.023 69.999H113.926L114.035 70.1085V71.0479L113.926 71.1573H113.023ZM114.427 71.1573L114.318 71.0479V70.1085L114.427 69.999H115.33L115.44 70.1085V71.0479L115.33 71.1573H114.427Z" fill="white"/>
<path d="M120.566 75.9739L120.465 76.0833H119.471L119.362 75.9739V68.8507L119.471 68.7412H120.465L120.566 68.8507V75.9739Z" fill="white"/>
<path d="M121.396 78.2627L121.286 78.1533V77.2868L121.396 77.1774H121.633C121.934 77.1774 122.153 77.1044 122.289 76.9494C122.417 76.7943 122.49 76.5663 122.49 76.2562V71.6959L122.6 71.5864H123.594L123.703 71.6959V76.2744C123.703 77.5878 123.074 78.2536 121.806 78.2536H121.396V78.2627Z" fill="white"/>
<path d="M125.071 68.8507L125.181 68.7412H126.175L126.284 68.8507V74.4325C126.284 74.6514 126.321 74.7973 126.412 74.8794C126.494 74.9615 126.622 75.0071 126.804 75.0071H127.178C127.324 75.0071 127.434 75.0436 127.507 75.1348C127.579 75.2169 127.616 75.3628 127.616 75.5635C127.616 75.7915 127.579 75.9374 127.516 75.9921C127.443 76.056 127.333 76.0833 127.187 76.0833H126.339C125.892 76.0833 125.573 75.9739 125.372 75.755C125.181 75.5361 125.08 75.1895 125.08 74.7244V68.8507H125.071Z" fill="white"/>
<path d="M129.814 74.3322C129.814 74.5602 129.878 74.7335 129.997 74.8429C130.115 74.9524 130.307 75.0071 130.571 75.0071C130.754 75.0071 130.89 74.998 131 74.9706C131.109 74.9433 131.182 74.8977 131.237 74.8156C131.292 74.7335 131.319 74.6241 131.328 74.4964C131.337 74.3596 131.346 74.1771 131.346 73.9491V72.5719L131.456 72.4625H132.45L132.56 72.5719V74.3778C132.56 74.6058 132.623 74.7609 132.769 74.8703C132.906 74.9798 133.089 75.0254 133.317 75.0254C133.481 75.0254 133.617 75.0162 133.718 74.9889C133.818 74.9615 133.9 74.9159 133.955 74.8338C134.01 74.7609 134.046 74.6514 134.055 74.5146C134.074 74.3778 134.074 74.1954 134.074 73.9674V71.7328L134.183 71.6234H135.177L135.287 71.7328V74.3596C135.287 74.5784 135.369 74.7426 135.533 74.8521C135.697 74.9706 135.916 75.0254 136.18 75.0254H136.363C136.509 75.0254 136.618 75.0618 136.691 75.1439C136.764 75.226 136.801 75.3628 136.801 75.5452C136.801 75.755 136.764 75.9009 136.691 75.983C136.618 76.0651 136.509 76.1016 136.363 76.1016C136.08 76.1016 135.843 76.0651 135.633 76.0013C135.423 75.9283 135.268 75.7824 135.141 75.5452C135.04 75.7459 134.894 75.8918 134.703 75.9739C134.511 76.056 134.256 76.1016 133.928 76.1016H133.462C133.207 76.1016 132.997 76.056 132.824 75.9557C132.642 75.8553 132.514 75.7185 132.414 75.5361C132.313 75.7459 132.167 75.8918 131.976 75.9739C131.784 76.056 131.529 76.1016 131.201 76.1016H130.726C130.215 76.1016 129.869 75.9101 129.677 75.527C129.577 75.7368 129.431 75.8827 129.24 75.9739C129.048 76.0651 128.793 76.1016 128.473 76.1016H127.306L127.087 76.0925L126.923 76.0286L126.823 75.8827C126.804 75.8189 126.786 75.7277 126.786 75.6091C126.786 75.3902 126.823 75.2351 126.886 75.1531C126.959 75.0618 127.06 75.0254 127.215 75.0254H128.081C128.209 75.0254 128.309 75.0071 128.382 74.9706C128.446 74.9342 128.501 74.8703 128.537 74.7791C128.574 74.697 128.592 74.5876 128.592 74.4508C128.592 74.3139 128.601 74.1498 128.601 73.9582V72.581L128.711 72.4716H129.705L129.814 72.581V74.3322ZM130.79 70.5198L130.681 70.4103V69.4709L130.79 69.3614H131.693L131.802 69.4709V70.4103L131.693 70.5198H130.79ZM131.483 69.1334L131.374 69.024V68.0845L131.483 67.9751H132.386L132.496 68.0845V69.024L132.386 69.1334H131.483ZM132.195 70.5198L132.085 70.4103V69.4709L132.195 69.3614H133.098L133.207 69.4709V70.4103L133.098 70.5198H132.195Z" fill="white"/>
<path d="M138.643 75.5259C138.542 75.7357 138.387 75.8816 138.187 75.9637C137.986 76.0458 137.712 76.0823 137.366 76.0823H136.363C136.217 76.0823 136.116 76.0458 136.034 75.9819C135.961 75.909 135.925 75.7722 135.925 75.5715C135.925 75.3617 135.961 75.2158 136.025 75.1337C136.098 75.0516 136.208 75.006 136.353 75.006H137.056C137.183 75.006 137.284 74.9878 137.357 74.9513L137.512 74.7689C137.539 74.6868 137.557 74.5774 137.567 74.4497C137.576 74.3129 137.576 74.1578 137.576 73.9572V71.7226L137.63 71.6314L137.749 71.6131H138.67L138.78 71.7226V74.3493C138.78 74.5682 138.862 74.7324 139.026 74.8419C139.19 74.9604 139.409 75.0152 139.673 75.0152H139.856C140.002 75.0152 140.111 75.0516 140.184 75.1337C140.257 75.2158 140.294 75.3526 140.294 75.535C140.294 75.7448 140.257 75.8907 140.193 75.9728C140.129 76.0549 140.011 76.0914 139.865 76.0914C139.582 76.0914 139.336 76.0549 139.135 75.9911C138.925 75.909 138.761 75.7539 138.643 75.5259ZM137.038 70.5187L136.928 70.4092V69.4698L137.038 69.3604H137.94L138.05 69.4698V70.4092L137.94 70.5187H137.038ZM138.442 70.5187L138.333 70.4092V69.4698L138.442 69.3604H139.345L139.454 69.4698V70.4092L139.345 70.5187H138.442Z" fill="white"/>
<path d="M142.455 74.3321C142.455 74.779 142.72 74.9979 143.239 74.9979C143.395 74.9979 143.522 74.9888 143.623 74.9705C143.714 74.9523 143.796 74.9158 143.851 74.8611C143.905 74.8063 143.942 74.7243 143.96 74.6148C143.978 74.5054 143.987 74.3594 143.987 74.1679V72.5353L144.097 72.4259H145.091L145.2 72.5353V74.3047C145.2 74.5327 145.273 74.706 145.41 74.8155C145.547 74.9249 145.729 74.9796 145.967 74.9796C146.14 74.9796 146.277 74.9705 146.377 74.9432C146.477 74.9158 146.55 74.8702 146.596 74.7881C146.642 74.7151 146.678 74.6057 146.687 74.4689C146.705 74.3321 146.705 74.1497 146.705 73.9216V71.6871L146.815 71.5776H147.809L147.918 71.6871V74.6969C147.918 75.1894 147.809 75.5451 147.608 75.7458C147.399 75.9555 147.052 76.0559 146.569 76.0559H146.103C145.848 76.0559 145.638 76.0103 145.465 75.9099C145.292 75.8096 145.155 75.6728 145.064 75.4904C144.963 75.7002 144.817 75.8461 144.626 75.9282C144.434 76.0103 144.179 76.0559 143.851 76.0559H143.376C142.866 76.0559 142.519 75.8643 142.327 75.4813C142.227 75.691 142.081 75.837 141.89 75.9282C141.698 76.0194 141.443 76.0559 141.114 76.0559H139.883C139.737 76.0559 139.628 76.0194 139.555 75.9555C139.482 75.8826 139.445 75.7549 139.445 75.5634C139.445 75.3445 139.482 75.1894 139.546 75.1073C139.609 75.0161 139.719 74.9796 139.874 74.9796H140.74C140.959 74.9796 141.105 74.9249 141.16 74.8063C141.215 74.6878 141.242 74.4689 141.242 74.1588V72.5262L141.352 72.4167H142.346L142.455 72.5262V74.3321Z" fill="white"/>
<path d="M153.847 68.8507L153.956 68.7412H154.951L155.06 68.8507V74.4416C155.124 74.8156 155.425 75.0071 155.945 75.0071H156.127C156.273 75.0071 156.373 75.0436 156.446 75.1257C156.519 75.2078 156.556 75.3446 156.556 75.527C156.556 75.7367 156.519 75.8827 156.456 75.9648C156.392 76.0468 156.273 76.0833 156.127 76.0833C155.854 76.0833 155.616 76.0468 155.407 75.983C155.197 75.9192 155.033 75.7641 154.905 75.5361C154.805 75.7367 154.659 75.8827 154.458 75.9556C154.257 76.0377 154.002 76.0742 153.665 76.0742H149.059L148.949 75.9648V75.0983L149.059 74.9889H150.983V70.3464L151.093 70.237H152.087L152.196 70.3464V74.9889H153.327C153.446 74.9889 153.546 74.9706 153.619 74.9432L153.774 74.7791C153.811 74.7061 153.829 74.6058 153.838 74.4781C153.847 74.3504 153.847 74.1954 153.847 74.0221V68.8507Z" fill="white"/>
<path d="M156.136 76.083C155.99 76.083 155.881 76.0465 155.817 75.9827C155.744 75.9097 155.708 75.7729 155.708 75.5631C155.708 75.3625 155.744 75.2165 155.808 75.1345C155.881 75.0524 155.99 75.0068 156.136 75.0068H156.665C156.848 75.0068 156.975 74.9703 157.057 74.8882C157.139 74.8061 157.185 74.6602 157.185 74.4413V68.8595L157.295 68.75H158.289L158.398 68.8595V74.7332C158.398 75.1983 158.298 75.5449 158.106 75.7638C157.915 75.9827 157.595 76.0921 157.149 76.0921H156.136V76.083Z" fill="white"/>
<path d="M68.4688 80.753L68.56 80.6709H72.0988L72.1809 80.753V81.4735L72.0988 81.5556H69.5085L69.4538 81.6103V82.9784L69.5085 83.0331H71.6883L71.7795 83.1152V83.8358L71.6883 83.9179H69.5085L69.4538 83.9726V85.3954L69.5085 85.441H72.0988L72.1809 85.5322V86.2527L72.0988 86.3348H68.56L68.4688 86.2527V80.753Z" fill="white"/>
<path d="M75.7377 86.3344L75.6556 86.2523V83.9357C75.6556 83.6712 75.5918 83.4614 75.4641 83.3064C75.3364 83.1422 75.1448 83.0601 74.8986 83.0601C74.6523 83.0601 74.4608 83.1422 74.3331 83.3064C74.1963 83.4705 74.1325 83.6803 74.1325 83.9357V86.2523L74.0504 86.3344H73.2842L73.2021 86.2523V82.4126L73.2842 82.3305H74.0504L74.1325 82.4126V82.7044H74.1416C74.2328 82.5767 74.3605 82.4673 74.5338 82.3761C74.7071 82.2849 74.9259 82.2393 75.1996 82.2393C75.4185 82.2393 75.61 82.2757 75.7742 82.3487C75.9475 82.4217 76.0934 82.5311 76.212 82.6588C76.3305 82.7956 76.4217 82.9507 76.4856 83.1331C76.5494 83.3155 76.5859 83.5162 76.5859 83.7259V86.2523L76.5038 86.3344H75.7377Z" fill="white"/>
<path d="M79.1305 87.9211C78.8477 87.9211 78.5741 87.8664 78.3096 87.7569C78.0451 87.6475 77.8353 87.5015 77.6803 87.3191L77.6894 87.2006L78.1819 86.708H78.3096C78.5741 86.9543 78.866 87.082 79.1852 87.082C79.4953 87.082 79.7233 86.9999 79.8692 86.8449C80.0152 86.6807 80.0881 86.4435 80.0881 86.1243V85.7504H80.079C79.9878 85.8963 79.851 86.0149 79.6868 86.097C79.5135 86.179 79.3037 86.2247 79.0392 86.2247C78.7018 86.2247 78.419 86.1426 78.1819 85.9784C77.9448 85.8142 77.7806 85.568 77.6712 85.2579C77.6255 85.1028 77.5891 84.9478 77.5708 84.7927C77.5526 84.6377 77.5435 84.4552 77.5435 84.2363C77.5435 84.0175 77.5526 83.8259 77.5708 83.68C77.5891 83.5341 77.6255 83.379 77.6712 83.224C77.7806 82.9047 77.9448 82.6585 78.1819 82.4943C78.419 82.3301 78.7018 82.248 79.0392 82.248C79.3037 82.248 79.5135 82.2936 79.6868 82.3757C79.8601 82.4578 79.9878 82.5764 80.079 82.7223H80.0881V82.4213L80.1702 82.3393H80.9363L81.0184 82.4213V86.097C81.0184 86.6716 80.8634 87.1185 80.5533 87.4468C80.2158 87.7569 79.7507 87.9211 79.1305 87.9211ZM79.2581 85.3947C79.4497 85.3947 79.6047 85.3491 79.7233 85.2579C79.8327 85.1667 79.924 85.039 79.9787 84.8748C80.0152 84.7836 80.0334 84.6833 80.0516 84.5829C80.0699 84.4826 80.0699 84.364 80.0699 84.2272C80.0699 83.9627 80.0334 83.7438 79.9787 83.5705C79.924 83.4064 79.8327 83.2878 79.7233 83.1966C79.6139 83.1054 79.4497 83.0598 79.2581 83.0598C78.8933 83.0598 78.6562 83.2331 78.5467 83.5614C78.4829 83.7347 78.4555 83.9536 78.4555 84.2181C78.4555 84.3549 78.4646 84.4735 78.4738 84.5738C78.492 84.6741 78.5103 84.7745 78.5467 84.8657C78.6562 85.2214 78.8933 85.3947 79.2581 85.3947Z" fill="white"/>
<path d="M82.2955 81.5644L82.2134 81.4823V80.7618L82.2955 80.6797H83.0616L83.1437 80.7618V81.4823L83.0616 81.5644H82.2955ZM82.2955 86.3345L82.2134 86.2524V82.4126L82.2955 82.3305H83.0616L83.1437 82.4126V86.2524L83.0616 86.3345H82.2955Z" fill="white"/>
<path d="M86.9013 86.3344L86.8192 86.2523V83.9357C86.8192 83.6712 86.7553 83.4614 86.6276 83.3064C86.5 83.1422 86.3084 83.0601 86.0622 83.0601C85.8159 83.0601 85.6335 83.1422 85.4967 83.3064C85.3599 83.4705 85.296 83.6803 85.296 83.9357V86.2523L85.2139 86.3344H84.4478L84.3657 86.2523V82.4126L84.4478 82.3305H85.2139L85.296 82.4126V82.7044H85.3051C85.3964 82.5767 85.524 82.4673 85.6973 82.3761C85.8706 82.2849 86.0895 82.2393 86.354 82.2393C86.5729 82.2393 86.7645 82.2757 86.9286 82.3487C87.1019 82.4217 87.2478 82.5311 87.3664 82.6588C87.485 82.7956 87.5853 82.9507 87.6492 83.1331C87.713 83.3155 87.7404 83.5162 87.7404 83.7259V86.2523L87.6583 86.3344H86.9013Z" fill="white"/>
<path d="M90.5131 86.4256C90.0844 86.4256 89.7287 86.3253 89.446 86.1338C89.1541 85.9331 88.9626 85.6595 88.8531 85.3129C88.8075 85.1852 88.771 85.0393 88.7528 84.8842C88.7254 84.7292 88.7163 84.5377 88.7163 84.3279C88.7163 84.1181 88.7254 83.9357 88.7528 83.7715C88.771 83.6074 88.8075 83.4705 88.8531 83.3429C88.9626 82.9963 89.1632 82.7227 89.4551 82.5311C89.7469 82.3396 90.0935 82.2393 90.4857 82.2393C90.9053 82.2393 91.2519 82.3396 91.5346 82.5311C91.8173 82.7318 92.018 82.9963 92.1274 83.3429L92.1822 83.5618C92.2004 83.6347 92.2095 83.7168 92.2186 83.808C92.2278 83.8992 92.2369 84.0087 92.246 84.1272C92.2551 84.2458 92.2551 84.3826 92.2551 84.5468L92.1639 84.6289H89.6922L89.6375 84.6745L89.6557 84.8386L89.6922 84.9755C89.829 85.3768 90.13 85.5865 90.5952 85.5865C90.8232 85.5865 91.0147 85.5501 91.1606 85.4771C91.3157 85.4041 91.4343 85.3129 91.5346 85.2035L91.6623 85.1852L92.1548 85.6139L92.1639 85.7325C91.9906 85.9331 91.7626 86.0973 91.489 86.225C91.2062 86.3618 90.887 86.4256 90.5131 86.4256ZM91.3066 83.8901C91.3066 83.7624 91.2883 83.6438 91.2519 83.5435C91.1971 83.3793 91.0968 83.2517 90.96 83.1604C90.8232 83.0692 90.659 83.0236 90.4675 83.0236C90.2759 83.0236 90.1118 83.0692 89.9658 83.1604C89.829 83.2517 89.7287 83.3793 89.674 83.5435C89.6375 83.6438 89.6193 83.7624 89.6193 83.8901L89.674 83.9448H91.2427L91.3066 83.8901Z" fill="white"/>
<path d="M94.8456 86.4256C94.4169 86.4256 94.0612 86.3253 93.7785 86.1338C93.4957 85.9331 93.2951 85.6595 93.1856 85.3129C93.14 85.1852 93.1036 85.0393 93.0853 84.8842C93.0579 84.7292 93.0488 84.5377 93.0488 84.3279C93.0488 84.1181 93.0579 83.9357 93.0853 83.7715C93.1036 83.6074 93.14 83.4705 93.1856 83.3429C93.2951 82.9963 93.4957 82.7227 93.7876 82.5311C94.0795 82.3396 94.4169 82.2393 94.8182 82.2393C95.2378 82.2393 95.5844 82.3396 95.8671 82.5311C96.1499 82.7318 96.3505 82.9963 96.46 83.3429L96.5147 83.5618C96.5329 83.6347 96.542 83.7168 96.5512 83.808C96.5603 83.8992 96.5694 84.0087 96.5785 84.1272C96.5876 84.2458 96.5876 84.3826 96.5876 84.5468L96.4964 84.6289H94.0247L93.97 84.6745L93.9883 84.8386L94.0247 84.9755C94.1616 85.3768 94.4625 85.5865 94.9277 85.5865C95.1557 85.5865 95.3472 85.5501 95.4932 85.4771C95.6391 85.4041 95.7668 85.3129 95.8671 85.2035L95.9948 85.1852L96.4873 85.6139L96.4964 85.7325C96.3231 85.9331 96.0951 86.0973 95.8215 86.225C95.5388 86.3618 95.2195 86.4256 94.8456 86.4256ZM95.6482 83.8901C95.6482 83.7624 95.63 83.6438 95.5935 83.5435C95.5388 83.3793 95.4384 83.2517 95.3016 83.1604C95.1648 83.0692 95.0006 83.0236 94.8091 83.0236C94.6176 83.0236 94.4443 83.0692 94.3075 83.1604C94.1707 83.2517 94.0703 83.3793 94.0156 83.5435C93.9791 83.6438 93.9609 83.7624 93.9609 83.8901L94.0156 83.9448H95.5844L95.6482 83.8901Z" fill="white"/>
<path d="M97.6729 86.3343L97.5908 86.2522V82.4124L97.6729 82.3303H98.439L98.5211 82.4124V82.7499H98.5302C98.6215 82.5948 98.7583 82.4671 98.9316 82.3759C99.1048 82.2847 99.3146 82.23 99.57 82.23C99.7342 82.23 99.8801 82.2573 100.035 82.3212C100.181 82.3759 100.309 82.458 100.409 82.5674L100.427 82.686L99.9895 83.2424L99.871 83.2606C99.7798 83.1968 99.6795 83.1512 99.5882 83.1147C99.497 83.0782 99.3876 83.0691 99.2781 83.0691C99.0136 83.0691 98.8221 83.1603 98.7035 83.3336C98.585 83.5069 98.5302 83.7622 98.5302 84.0815V86.2522L98.4482 86.3343H97.6729Z" fill="white"/>
<path d="M101.193 81.5644L101.111 81.4823V80.7618L101.193 80.6797H101.96L102.042 80.7618V81.4823L101.96 81.5644H101.193ZM101.193 86.3345L101.111 86.2524V82.4126L101.193 82.3305H101.96L102.042 82.4126V86.2524L101.96 86.3345H101.193Z" fill="white"/>
<path d="M105.8 86.3344L105.718 86.2523V83.9357C105.718 83.6712 105.654 83.4614 105.526 83.3064C105.398 83.1422 105.207 83.0601 104.961 83.0601C104.714 83.0601 104.532 83.1422 104.395 83.3064C104.258 83.4705 104.194 83.6803 104.194 83.9357V86.2523L104.112 86.3344H103.346L103.264 86.2523V82.4126L103.346 82.3305H104.112L104.194 82.4126V82.7044H104.204C104.295 82.5767 104.422 82.4673 104.596 82.3761C104.769 82.2849 104.988 82.2393 105.252 82.2393C105.471 82.2393 105.663 82.2757 105.827 82.3487C106 82.4217 106.146 82.5311 106.265 82.6588C106.383 82.7956 106.484 82.9507 106.548 83.1331C106.611 83.3155 106.639 83.5162 106.639 83.7259V86.2523L106.557 86.3344H105.8Z" fill="white"/>
<path d="M109.192 87.9211C108.91 87.9211 108.636 87.8664 108.372 87.7569C108.107 87.6475 107.897 87.5015 107.742 87.3191L107.751 87.2006L108.244 86.708H108.372C108.636 86.9543 108.919 87.082 109.247 87.082C109.557 87.082 109.785 86.9999 109.931 86.8449C110.077 86.6807 110.15 86.4435 110.15 86.1243V85.7504H110.141C110.05 85.8963 109.913 86.0149 109.749 86.097C109.576 86.179 109.366 86.2247 109.101 86.2247C108.764 86.2247 108.481 86.1426 108.244 85.9784C108.016 85.8142 107.843 85.568 107.733 85.2579C107.678 85.1028 107.651 84.9478 107.633 84.7927C107.615 84.6377 107.605 84.4552 107.605 84.2363C107.605 84.0175 107.615 83.8259 107.633 83.68C107.651 83.5341 107.688 83.379 107.733 83.224C107.833 82.9047 108.007 82.6585 108.244 82.4943C108.481 82.3301 108.764 82.248 109.101 82.248C109.366 82.248 109.576 82.2936 109.749 82.3757C109.922 82.4578 110.05 82.5764 110.141 82.7223H110.15V82.4213L110.232 82.3393H110.998L111.08 82.4213V86.097C111.08 86.6716 110.925 87.1185 110.606 87.4468C110.278 87.7569 109.813 87.9211 109.192 87.9211ZM109.32 85.3947C109.512 85.3947 109.667 85.3491 109.785 85.2579C109.895 85.1667 109.986 85.039 110.041 84.8748C110.077 84.7836 110.095 84.6833 110.114 84.5829C110.132 84.4826 110.132 84.364 110.132 84.2272C110.132 83.9627 110.095 83.7438 110.041 83.5705C109.986 83.4064 109.895 83.2878 109.785 83.1966C109.667 83.1054 109.521 83.0598 109.32 83.0598C108.955 83.0598 108.718 83.2331 108.609 83.5614C108.545 83.7347 108.518 83.9536 108.518 84.2181C108.518 84.3549 108.527 84.4735 108.536 84.5738C108.545 84.6741 108.572 84.7745 108.609 84.8657C108.718 85.2214 108.955 85.3947 109.32 85.3947Z" fill="white"/>
<path d="M114.236 85.0297C114.209 84.9385 114.181 84.8564 114.163 84.7652C114.145 84.674 114.127 84.5736 114.118 84.4642C114.108 84.3547 114.099 84.2179 114.09 84.0629C114.081 83.9078 114.081 83.7163 114.081 83.4883C114.081 83.2694 114.081 83.0778 114.09 82.9228C114.099 82.7677 114.099 82.6309 114.118 82.5215C114.127 82.412 114.145 82.3117 114.163 82.2205C114.181 82.1384 114.209 82.0472 114.236 81.956C114.382 81.4909 114.619 81.1443 114.966 80.9071C115.303 80.6791 115.723 80.5605 116.197 80.5605C116.653 80.5605 117.045 80.67 117.374 80.8889C117.702 81.1078 117.948 81.4088 118.112 81.7827L118.067 81.883L117.355 82.2296L117.246 82.1931C117.155 81.9925 117.018 81.8192 116.863 81.6733C116.699 81.5273 116.48 81.4544 116.197 81.4544C115.923 81.4544 115.705 81.5182 115.549 81.655C115.385 81.7918 115.267 81.9742 115.185 82.2023L115.139 82.3847C115.13 82.4485 115.112 82.5215 115.103 82.6218C115.093 82.7221 115.084 82.8407 115.084 82.9775C115.084 83.1143 115.075 83.2876 115.075 83.4883C115.075 83.698 115.075 83.8713 115.084 84.0082C115.084 84.145 115.093 84.2635 115.103 84.3547C115.112 84.4551 115.121 84.528 115.139 84.5919L115.185 84.7743C115.258 85.0023 115.385 85.1938 115.549 85.3215C115.714 85.4583 115.933 85.5222 116.197 85.5222C116.48 85.5222 116.699 85.4492 116.863 85.3033C117.027 85.1574 117.155 84.9841 117.246 84.7834L117.355 84.7469L118.067 85.0844L118.112 85.1847C117.948 85.5587 117.702 85.8596 117.374 86.0785C117.045 86.2974 116.653 86.4069 116.197 86.4069C115.714 86.4069 115.303 86.2883 114.966 86.0603C114.628 85.8505 114.382 85.5039 114.236 85.0297Z" fill="white"/>
<path d="M120.593 86.4258C120.183 86.4258 119.836 86.3255 119.544 86.134C119.253 85.9424 119.052 85.6688 118.942 85.3131C118.897 85.1672 118.86 85.0212 118.842 84.8753C118.824 84.7294 118.806 84.547 118.806 84.3189C118.806 84.1 118.815 83.9085 118.842 83.7626C118.86 83.6166 118.897 83.4707 118.942 83.3248C119.052 82.9782 119.253 82.7046 119.544 82.5131C119.836 82.3215 120.183 82.2212 120.593 82.2212C120.995 82.2212 121.35 82.3215 121.642 82.5131C121.934 82.7046 122.135 82.9782 122.244 83.3248C122.29 83.4707 122.326 83.6166 122.344 83.7626C122.363 83.9085 122.381 84.0909 122.381 84.3189C122.381 84.5378 122.372 84.7294 122.344 84.8753C122.326 85.0212 122.29 85.1672 122.244 85.3131C122.135 85.6597 121.934 85.9333 121.642 86.134C121.35 86.3255 121.004 86.4258 120.593 86.4258ZM120.593 85.5958C120.785 85.5958 120.94 85.5502 121.058 85.459C121.186 85.3678 121.277 85.2401 121.332 85.076C121.369 84.9665 121.387 84.8662 121.396 84.7567C121.405 84.6473 121.414 84.5105 121.414 84.3372C121.414 84.1639 121.405 84.0271 121.396 83.9176C121.387 83.8173 121.359 83.7079 121.332 83.5893C121.268 83.4251 121.177 83.2974 121.058 83.2062C120.931 83.115 120.776 83.0694 120.593 83.0694C120.402 83.0694 120.247 83.115 120.119 83.2062C119.991 83.2974 119.9 83.4251 119.836 83.5893C119.8 83.6987 119.782 83.8082 119.772 83.9176C119.763 84.0271 119.754 84.1639 119.754 84.3372C119.754 84.5105 119.763 84.6473 119.772 84.7567C119.782 84.8662 119.809 84.9756 119.836 85.076C119.9 85.2401 119.991 85.3678 120.119 85.459C120.247 85.5502 120.411 85.5958 120.593 85.5958Z" fill="white"/>
<path d="M125.911 86.3344L125.828 86.2523V83.9357C125.828 83.6712 125.765 83.4614 125.637 83.3064C125.509 83.1422 125.318 83.0601 125.071 83.0601C124.825 83.0601 124.643 83.1422 124.506 83.3064C124.369 83.4705 124.305 83.6803 124.305 83.9357V86.2523L124.223 86.3344H123.457L123.375 86.2523V82.4126L123.457 82.3305H124.223L124.305 82.4126V82.7044H124.314C124.406 82.5767 124.533 82.4673 124.707 82.3761C124.88 82.2849 125.099 82.2393 125.363 82.2393C125.582 82.2393 125.774 82.2757 125.938 82.3487C126.111 82.4217 126.257 82.5311 126.376 82.6588C126.494 82.7956 126.595 82.9507 126.658 83.1331C126.722 83.3155 126.759 83.5162 126.759 83.7259V86.2523L126.677 86.3344H125.911Z" fill="white"/>
<path d="M129.413 86.4256C129.002 86.4256 128.656 86.3618 128.373 86.225C128.09 86.0882 127.862 85.9514 127.698 85.7963V85.6777L128.173 85.1761H128.291C128.437 85.3038 128.61 85.4132 128.829 85.5045C129.039 85.5865 129.258 85.6321 129.468 85.6321C129.714 85.6321 129.905 85.5865 130.024 85.4953C130.143 85.4041 130.206 85.2947 130.206 85.1579C130.206 85.0393 130.161 84.939 130.07 84.866C129.978 84.793 129.805 84.7474 129.541 84.7201L129.103 84.6745C128.692 84.6289 128.382 84.5103 128.182 84.3096C127.981 84.109 127.872 83.8354 127.872 83.4979C127.872 83.1057 128.008 82.8047 128.273 82.5767C128.537 82.3487 128.92 82.2393 129.431 82.2393C129.75 82.2393 130.033 82.2849 130.289 82.3761C130.544 82.4673 130.763 82.5858 130.936 82.7318L130.954 82.8503L130.544 83.3429L130.425 83.3611C130.298 83.2699 130.143 83.1969 129.96 83.124C129.778 83.0601 129.577 83.0236 129.386 83.0236C129.185 83.0236 129.03 83.0601 128.93 83.1422C128.829 83.2152 128.774 83.3155 128.774 83.4432C128.774 83.5618 128.82 83.653 128.911 83.7168C129.002 83.7898 129.176 83.8354 129.431 83.8627L129.86 83.9083C130.279 83.9539 130.589 84.0725 130.799 84.2823C131 84.4829 131.1 84.7566 131.1 85.0849C131.1 85.4862 130.954 85.8054 130.672 86.0608C130.389 86.2979 129.969 86.4256 129.413 86.4256Z" fill="white"/>
<path d="M134.539 86.334L134.457 86.252V85.9601H134.447C134.338 86.0969 134.201 86.2064 134.037 86.2976C133.873 86.3797 133.663 86.4253 133.408 86.4253C133.189 86.4253 132.997 86.3888 132.833 86.3158C132.66 86.2428 132.523 86.1334 132.404 86.0057C132.286 85.8689 132.195 85.7138 132.131 85.5314C132.067 85.349 132.04 85.1575 132.04 84.9386V82.4122L132.122 82.3301H132.888L132.97 82.4122V84.7288C132.97 84.9933 133.034 85.2031 133.152 85.3581C133.271 85.5223 133.462 85.5953 133.718 85.5953C133.955 85.5953 134.137 85.5132 134.274 85.3581C134.402 85.194 134.466 84.9933 134.466 84.7288V82.4122L134.548 82.3301H135.314L135.396 82.4122V86.252L135.314 86.334H134.539Z" fill="white"/>
<path d="M137.685 86.3804C137.293 86.3804 137.01 86.2892 136.837 86.0977C136.664 85.9062 136.582 85.6234 136.582 85.2312V80.753L136.664 80.6709H137.43L137.512 80.753V85.1765C137.512 85.3133 137.539 85.4136 137.594 85.4592C137.649 85.514 137.74 85.5413 137.858 85.5413H138.041L138.123 85.6234V86.2892L138.041 86.3713H137.685V86.3804Z" fill="white"/>
<path d="M140.129 86.3798C139.728 86.3798 139.436 86.2795 139.272 86.088C139.099 85.8964 139.017 85.6046 139.017 85.2033V83.0873L138.971 83.0417H138.707L138.625 82.9596V82.4032L138.707 82.3211H138.971L139.017 82.2664V81.1719L139.099 81.0898H139.865L139.947 81.1719V82.2664L140.002 82.3211H140.531L140.613 82.4032V82.9596L140.531 83.0417H140.002L139.947 83.0873V85.1668C139.947 85.3127 139.974 85.4039 140.038 85.4586C140.102 85.5134 140.193 85.5407 140.321 85.5407H140.531L140.613 85.6228V86.2886L140.531 86.3707H140.129V86.3798Z" fill="white"/>
<path d="M144.015 86.3341L143.933 86.252V85.9602H143.924C143.832 86.097 143.687 86.2064 143.504 86.2976C143.313 86.3797 143.075 86.4253 142.793 86.4253C142.61 86.4253 142.437 86.3979 142.273 86.3523C142.109 86.3067 141.963 86.2247 141.844 86.1334C141.726 86.0331 141.625 85.9054 141.552 85.7595C141.479 85.6044 141.443 85.422 141.443 85.2123C141.443 84.7745 141.589 84.4552 141.872 84.2546C142.154 84.0539 142.546 83.9536 143.048 83.9536H143.869L143.924 83.8989V83.7073C143.924 83.4702 143.86 83.306 143.732 83.1966C143.604 83.0871 143.367 83.0415 143.03 83.0415C142.802 83.0415 142.619 83.0689 142.474 83.1236C142.328 83.1784 142.209 83.2422 142.118 83.3152L141.999 83.2969L141.689 82.7497L141.707 82.6402C141.872 82.5217 142.063 82.4305 142.291 82.3575C142.519 82.2845 142.802 82.248 143.13 82.248C143.741 82.248 144.17 82.3575 144.425 82.5855C144.681 82.8044 144.799 83.1601 144.799 83.6526V86.2702L144.717 86.3523H144.015V86.3341ZM143.03 85.6683C143.322 85.6683 143.541 85.6136 143.696 85.5041C143.851 85.3947 143.924 85.2214 143.924 84.9842V84.6741L143.869 84.6285H143.203C142.902 84.6285 142.683 84.6741 142.546 84.7562C142.41 84.8383 142.337 84.9751 142.337 85.1667C142.337 85.5041 142.565 85.6683 143.03 85.6683Z" fill="white"/>
<path d="M147.152 86.3798C146.751 86.3798 146.459 86.2795 146.295 86.088C146.122 85.8964 146.04 85.6046 146.04 85.2033V83.0873L145.994 83.0417H145.73L145.647 82.9596V82.4032L145.73 82.3211H145.994L146.04 82.2664V81.1719L146.122 81.0898H146.888L146.97 81.1719V82.2664L147.016 82.3211H147.545L147.627 82.4032V82.9596L147.545 83.0417H147.016L146.97 83.0873V85.1668C146.97 85.3127 146.997 85.4039 147.061 85.4586C147.125 85.5134 147.216 85.5407 147.344 85.5407H147.554L147.636 85.6228V86.2886L147.554 86.3707H147.152V86.3798Z" fill="white"/>
<path d="M148.731 81.5644L148.648 81.4823V80.7618L148.731 80.6797H149.497L149.579 80.7618V81.4823L149.497 81.5644H148.731ZM148.731 86.3345L148.648 86.2524V82.4126L148.731 82.3305H149.497L149.579 82.4126V86.2524L149.497 86.3345H148.731Z" fill="white"/>
<path d="M152.37 86.4258C151.959 86.4258 151.604 86.3255 151.321 86.134C151.029 85.9424 150.828 85.6688 150.719 85.3131C150.673 85.1672 150.646 85.0212 150.619 84.8753C150.6 84.7294 150.582 84.547 150.582 84.3189C150.582 84.1 150.591 83.9085 150.619 83.7626C150.646 83.6166 150.673 83.4707 150.719 83.3248C150.828 82.9782 151.029 82.7046 151.321 82.5131C151.613 82.3215 151.959 82.2212 152.37 82.2212C152.771 82.2212 153.127 82.3215 153.419 82.5131C153.71 82.7046 153.911 82.9782 154.021 83.3248C154.066 83.4707 154.093 83.6166 154.121 83.7626C154.139 83.9085 154.157 84.0909 154.157 84.3189C154.157 84.5378 154.148 84.7294 154.121 84.8753C154.103 85.0212 154.066 85.1672 154.021 85.3131C153.911 85.6597 153.71 85.9333 153.419 86.134C153.127 86.3255 152.771 86.4258 152.37 86.4258ZM152.37 85.5958C152.561 85.5958 152.716 85.5502 152.844 85.459C152.963 85.3678 153.063 85.2401 153.118 85.076C153.154 84.9665 153.172 84.8662 153.181 84.7567C153.191 84.6473 153.2 84.5105 153.2 84.3372C153.2 84.1639 153.191 84.0271 153.181 83.9176C153.172 83.8173 153.145 83.7079 153.118 83.5893C153.054 83.4251 152.963 83.2974 152.844 83.2062C152.716 83.115 152.561 83.0694 152.37 83.0694C152.178 83.0694 152.023 83.115 151.895 83.2062C151.768 83.2974 151.677 83.4251 151.613 83.5893C151.576 83.6987 151.558 83.8082 151.549 83.9176C151.54 84.0271 151.531 84.1639 151.531 84.3372C151.531 84.5105 151.54 84.6473 151.549 84.7567C151.558 84.8662 151.585 84.9756 151.613 85.076C151.677 85.2401 151.768 85.3678 151.895 85.459C152.023 85.5502 152.178 85.5958 152.37 85.5958Z" fill="white"/>
<path d="M157.687 86.3344L157.605 86.2523V83.9357C157.605 83.6712 157.541 83.4614 157.413 83.3064C157.286 83.1422 157.094 83.0601 156.848 83.0601C156.602 83.0601 156.41 83.1422 156.282 83.3064C156.146 83.4705 156.082 83.6803 156.082 83.9357V86.2523L156 86.3344H155.233L155.151 86.2523V82.4126L155.233 82.3305H156L156.082 82.4126V82.7044H156.091C156.182 82.5767 156.31 82.4673 156.483 82.3761C156.656 82.2849 156.875 82.2393 157.14 82.2393C157.359 82.2393 157.55 82.2757 157.714 82.3487C157.888 82.4217 158.034 82.5311 158.152 82.6588C158.271 82.7956 158.362 82.9507 158.426 83.1331C158.49 83.3155 158.526 83.5162 158.526 83.7259V86.2523L158.444 86.3344H157.687Z" fill="white"/>
<path d="M159 64.2715H68.3682V65.4572H159V64.2715Z" fill="#0084AA"/>
<defs>
<linearGradient id="paint0_linear_203_237" x1="0.38924" y1="43.829" x2="58.8344" y2="43.829" gradientUnits="userSpaceOnUse">
<stop stop-color="#0084AA"/>
<stop offset="0.0158" stop-color="#0084AA"/>
<stop offset="1" stop-color="#004A5F"/>
</linearGradient>
</defs>
</svg>
