<svg width="157" height="91" viewBox="0 0 157 91" fill="none" xmlns="http://www.w3.org/2000/svg">
<mask id="mask0_203_2559" style="mask-type:luminance" maskUnits="userSpaceOnUse" x="0" y="0" width="58" height="87">
<path d="M5.04354 0C2.25561 0 0 2.25561 0 5.04354V81.671C0 84.4589 2.25561 86.7145 5.04354 86.7145H52.7631C55.5511 86.7145 57.8067 84.4589 57.8067 81.671V5.04354C57.8067 2.25561 55.5511 0 52.7631 0H5.04354Z" fill="white"/>
</mask>
<g mask="url(#mask0_203_2559)">
<path d="M57.8067 0H0V86.7145H57.8067V0Z" fill="url(#paint0_linear_203_2559)"/>
</g>
<path d="M56.4896 57.933C52.4114 49.4068 42.3334 45.1753 33.4012 40.5739C21.0043 34.186 20.9863 30.5229 20.9863 30.5229C19.2179 43.9663 22.7457 46.3392 38.4176 53.4218C40.565 54.3962 49.416 58.321 49.416 67.7765C49.416 76.0591 42.7033 82.7808 34.4117 82.7808C30.2433 82.7808 26.481 81.0846 23.7652 78.3417C27.0945 77.638 29.5847 74.6876 29.5847 71.1509C29.5847 67.0908 26.2915 63.8066 22.2404 63.8066C18.1803 63.8066 14.8871 67.0998 14.8871 71.1509L14.8962 71.3854L14.833 71.4215C15.2841 83.277 24.8118 90.2964 36.7755 90.2964C49.028 90.2964 58.9617 80.3628 58.9617 68.1103C58.9617 64.4382 58.0685 60.9736 56.4896 57.933Z" fill="white"/>
<path d="M40.4837 41.7738C55.0098 49.0098 57.8338 56.2187 57.8338 56.2187C60.4684 38.7333 45.1122 33.374 32.7786 26.7876C20.472 20.2193 20.5081 16.5562 20.5081 16.5562C18.5502 29.9725 23.1516 33.1394 40.4837 41.7738Z" fill="white"/>
<path d="M35.3768 22.6553C46.2669 28.0778 48.3781 33.4822 48.3781 33.4822C50.3541 20.3726 38.8505 16.3577 29.6025 11.4224C20.3816 6.49615 20.4086 3.75333 20.4086 3.75333C18.938 13.8043 22.3845 16.1862 35.3768 22.6553Z" fill="white"/>
<path d="M66.8833 56.8684L67.7675 55.0097C69.0126 56.1285 71.1329 56.9405 73.2802 56.9405C76.1674 56.9405 77.4125 55.8218 77.4125 54.3601C77.4125 50.273 67.2893 52.8534 67.2893 46.6459C67.2893 44.0655 69.2923 41.8731 73.6862 41.8731C75.6441 41.8731 77.6741 42.3964 79.0546 43.3528L78.2696 45.2655C76.817 44.3362 75.1659 43.9031 73.6862 43.9031C70.8441 43.9031 69.6261 45.0941 69.6261 46.5557C69.6261 50.6339 79.7493 48.0805 79.7493 54.2158C79.7493 56.7691 77.6922 58.9706 73.2802 58.9706C70.7269 58.9706 68.2186 58.1134 66.8833 56.8684Z" fill="white"/>
<path d="M93.8873 54.6037H85.0093L83.1687 58.7811H80.7056L88.2754 42.0716H90.6393L98.2271 58.7811H95.7189L93.8873 54.6037ZM93.0482 52.691L89.4393 44.5076L85.8303 52.691H93.0482Z" fill="white"/>
<path d="M116.209 58.7811L116.182 46.6099L110.146 56.7511H109.045L103.009 46.673V58.7811H100.717V42.0716H102.675L109.64 53.8188L116.516 42.0716H118.473L118.5 58.7811H116.209Z" fill="white"/>
<path d="M134.163 54.6037H125.285L123.445 58.7811H120.991L128.561 42.0716H130.924L138.512 58.7811H136.004L134.163 54.6037ZM133.324 52.691L129.715 44.5076L126.106 52.691H133.324Z" fill="white"/>
<path d="M151.947 54.6037H143.069L141.228 58.7811H138.765L146.335 42.0716H148.699L156.287 58.7811H153.778L151.947 54.6037ZM151.117 52.691L147.508 44.5076L143.899 52.691H151.117Z" fill="white"/>
<mask id="mask1_203_2559" style="mask-type:luminance" maskUnits="userSpaceOnUse" x="83" y="9" width="74" height="28">
<path d="M104.804 31.4973C104.281 31.2898 103.821 31.0011 103.415 30.6221C103.009 30.2432 102.684 29.783 102.432 29.2417C102.179 28.6913 102.053 28.0688 102.053 27.374V22.511C102.053 21.7982 102.179 21.1666 102.432 20.6162C102.684 20.0659 103.009 19.6057 103.415 19.2358C103.821 18.8569 104.281 18.5682 104.795 18.3606C105.319 18.1531 105.842 18.0358 106.383 17.9997C106.916 17.9817 107.457 18.0629 107.98 18.2433C108.513 18.4238 108.982 18.6945 109.388 19.0644C109.803 19.4343 110.128 19.9035 110.38 20.4719C110.633 21.0493 110.759 21.726 110.759 22.511V31.8401H106.374C105.86 31.8131 105.328 31.7048 104.804 31.4973ZM83.9717 14.3276V27.4462C83.9717 28.7003 84.1972 29.8823 84.6574 30.983C85.1175 32.0837 85.7401 33.0582 86.5431 33.9153C87.337 34.7724 88.2754 35.4581 89.34 35.9814C90.3596 36.4867 91.4603 36.7844 92.6332 36.8927V36.9107L92.7234 36.9017L92.7956 36.9107V36.8927C93.9595 36.8115 95.0693 36.5769 96.1249 36.1799C97.2346 35.7649 98.3444 35.0251 99.4632 33.9514C100.465 34.8987 101.565 35.6476 102.756 36.1799C103.947 36.7213 105.165 36.9829 106.429 36.9829L119.926 36.9288V36.8837C121.018 36.7754 122.064 36.4867 123.075 35.9905C124.131 35.4672 125.114 34.7905 126.034 33.9514C127.036 34.8987 128.145 35.6296 129.345 36.1438C130.545 36.6581 131.736 36.9198 132.918 36.9378C134.118 36.8476 135.309 36.5769 136.482 36.1348C137.655 35.6837 138.765 34.9619 139.802 33.9604C140.786 34.8536 141.878 35.5664 143.078 36.0987C144.278 36.6311 145.496 36.9107 146.732 36.9468C147.986 36.8747 149.177 36.5769 150.305 36.0626C151.432 35.5393 152.425 34.8627 153.291 34.0055C154.148 33.1484 154.834 32.165 155.348 31.0462C155.853 29.9274 156.115 28.7274 156.115 27.4552V17.3501C153.282 17.3501 150.981 19.6508 150.981 22.4839V27.347C150.981 28.0507 150.855 28.6643 150.602 29.2146C150.35 29.756 150.025 30.2251 149.619 30.5951C149.213 30.974 148.762 31.2627 148.247 31.4522C147.733 31.6507 147.21 31.7589 146.678 31.777C146.136 31.7589 145.613 31.6507 145.108 31.4522C144.593 31.2537 144.142 30.965 143.736 30.5951C143.33 30.2161 143.005 29.756 142.771 29.2146C142.527 28.6643 142.41 28.0417 142.41 27.347V17.3411C139.559 17.3411 137.249 19.6508 137.249 22.5019V27.338C137.249 28.0417 137.123 28.6642 136.87 29.2236C136.618 29.783 136.293 30.2432 135.887 30.6221C135.481 31.0011 135.021 31.2898 134.497 31.4792C133.974 31.6777 133.451 31.777 132.909 31.777C132.368 31.777 131.845 31.6777 131.321 31.4792C130.798 31.2808 130.338 30.992 129.941 30.6221C129.535 30.2432 129.21 29.783 128.957 29.2236C128.705 28.6642 128.579 28.0417 128.579 27.338V17.3411C125.746 17.3411 123.445 19.6418 123.445 22.4749V27.338C123.445 27.9695 123.346 28.5379 123.147 29.0432C122.949 29.5575 122.678 29.9905 122.344 30.3605C122.001 30.7304 121.613 31.0281 121.162 31.2627C120.711 31.4973 120.251 31.6507 119.764 31.7229V31.777H115.947V22.3666C115.947 21.0583 115.695 19.8313 115.198 18.6854C114.693 17.5396 114.016 16.5381 113.159 15.672C112.302 14.8148 111.292 14.1291 110.137 13.6329C108.982 13.1276 107.746 12.875 106.438 12.875C105.129 12.875 103.902 13.1276 102.756 13.6329C101.611 14.1381 100.609 14.8148 99.7429 15.672C98.8767 16.5291 98.2 17.5396 97.7038 18.6854C97.1986 19.8313 96.9459 21.0583 96.9459 22.3666V27.365C96.9459 28.1139 96.8377 28.7635 96.6211 29.3048C96.4046 29.8462 96.1068 30.2883 95.7369 30.6492C95.358 31.0101 94.9069 31.2717 94.3745 31.4522C93.8963 31.6146 93.364 31.7138 92.8046 31.7589V31.7229C92.3174 31.6507 91.8573 31.4973 91.4062 31.2627C90.955 31.0281 90.5671 30.7304 90.2332 30.3605C89.8994 29.9905 89.6287 29.5575 89.4303 29.0432C89.2227 28.5289 89.1235 27.9605 89.1235 27.338V9.19385C86.2724 9.19385 83.9717 11.4946 83.9717 14.3276Z" fill="white"/>
</mask>
<g mask="url(#mask1_203_2559)">
<path d="M156.097 9.19385H83.9717V36.9919H156.097V9.19385Z" fill="url(#paint1_linear_203_2559)"/>
</g>
<mask id="mask2_203_2559" style="mask-type:luminance" maskUnits="userSpaceOnUse" x="67" y="17" width="17" height="21">
<path d="M76.1586 17.3862C75.0308 17.5125 73.9661 17.8373 72.9556 18.3697C71.9451 18.902 71.0789 19.5696 70.3301 20.3726C69.5812 21.1847 69.0218 22.1049 68.6338 23.1515C68.2459 24.1981 68.1196 25.2899 68.2459 26.4357C68.3361 27.2297 68.5978 28.0868 69.0399 28.9981C69.482 29.9093 70.1496 30.9018 71.0609 31.9574L67.2534 33.4191V37.8671C68.5797 37.425 69.8699 37.0551 71.1421 36.7574C72.4142 36.4596 73.6864 36.198 74.9586 35.9814C76.2307 35.7649 77.5209 35.5754 78.8202 35.413C80.1194 35.2506 81.4637 35.0972 82.8532 34.9439L83.4216 34.8807V34.8536C82.9344 34.2401 82.5284 33.5725 82.2216 32.8236C81.9509 32.174 81.7795 31.4883 81.6983 30.7665C81.4096 30.8026 81.1299 30.8477 80.8502 30.8747C79.7675 30.992 78.7029 30.9559 77.6473 30.7665C76.5916 30.577 75.6262 30.0988 74.7601 29.35C74.4082 28.9891 74.1105 28.574 73.8488 28.1049C73.5872 27.6357 73.4338 27.1575 73.3796 26.6522C73.3436 26.3455 73.3526 26.0387 73.4067 25.7139C73.4518 25.3891 73.5511 25.0643 73.7045 24.7214C74.0473 23.9455 74.5435 23.3681 75.1931 23.0072C75.8337 22.6463 76.5375 22.4207 77.3044 22.3305C77.7736 22.2764 78.2518 22.2673 78.7209 22.3034C79.1991 22.3395 79.6502 22.4027 80.0743 22.511C80.2096 21.7892 80.3359 21.0764 80.4532 20.3907C80.5705 19.696 80.6878 18.9742 80.8051 18.2253C80.0472 17.8193 79.2893 17.5486 78.5134 17.4404C78.0713 17.3772 77.6292 17.3411 77.1781 17.3411C76.8262 17.3321 76.4924 17.3501 76.1586 17.3862Z" fill="white"/>
</mask>
<g mask="url(#mask2_203_2559)">
<path d="M83.4128 17.3323H67.2446V37.8583H83.4128V17.3323Z" fill="url(#paint2_linear_203_2559)"/>
</g>
<path d="M70.4291 70.6366V70.1764L70.5374 70.0682H71.5208L71.6291 70.1764V73.632C71.6291 73.8395 71.6742 73.9929 71.7554 74.0741C71.8366 74.1553 71.9629 74.2004 72.1434 74.2004H72.5494C72.8381 74.2004 72.9734 74.3809 72.9734 74.7418C72.9734 74.9583 72.9373 75.1027 72.8742 75.1658C72.811 75.229 72.6937 75.2651 72.5494 75.2651H71.6832C71.3404 75.2651 71.0607 75.2019 70.8712 75.0846C70.6727 74.9583 70.5464 74.7418 70.4832 74.435C70.3299 74.5704 70.1584 74.6606 69.9509 74.7328C69.7434 74.7959 69.5269 74.832 69.3013 74.832C69.0216 74.832 68.76 74.7959 68.5163 74.7147C68.2727 74.6335 68.0562 74.5162 67.8758 74.3538C67.6953 74.1914 67.5509 73.9839 67.4427 73.7313C67.3344 73.4786 67.2803 73.1719 67.2803 72.82C67.2803 72.405 67.3434 72.0621 67.4607 71.7824C67.578 71.5027 67.7314 71.2862 67.9299 71.1148C68.1284 70.9433 68.3449 70.8261 68.5975 70.7539C68.8502 70.6817 69.1028 70.6456 69.3735 70.6456H70.4291V70.6366ZM68.39 69.3374L68.2818 69.2291V68.2998L68.39 68.1915H69.2833L69.3915 68.2998V69.2291L69.2833 69.3374H68.39ZM69.4276 73.7583C69.7705 73.7583 70.0231 73.6591 70.1855 73.4696C70.3479 73.2711 70.4291 72.9914 70.4291 72.6125V71.7103H69.4817C69.175 71.7103 68.9314 71.7915 68.7419 71.9448C68.5524 72.0982 68.4622 72.3869 68.4622 72.802C68.4622 73.1268 68.5434 73.3704 68.7148 73.5238C68.8953 73.6771 69.1299 73.7583 69.4276 73.7583ZM69.7795 69.3374L69.6712 69.2291V68.2998L69.7795 68.1915H70.6727L70.781 68.2998V69.2291L70.6727 69.3374H69.7795Z" fill="white"/>
<path d="M74.9763 74.7147C74.877 74.9222 74.7236 75.0666 74.5252 75.1478C74.3267 75.229 74.056 75.2651 73.7131 75.2651H72.7207C72.5763 75.2651 72.468 75.229 72.3959 75.1658C72.3237 75.0937 72.2876 74.9673 72.2876 74.7598C72.2876 74.5523 72.3237 74.408 72.3868 74.3268C72.459 74.2455 72.5673 74.2004 72.7116 74.2004H73.4064C73.5327 74.2004 73.6319 74.1824 73.7041 74.1373C73.7673 74.1012 73.8214 74.038 73.8575 73.9568C73.8936 73.8756 73.9116 73.7674 73.9116 73.6411C73.9207 73.5057 73.9207 73.3523 73.9207 73.1538V70.9433L73.9748 70.8531L74.0921 70.8351H75.0033L75.1116 70.9433V73.5418C75.1116 73.7583 75.1928 73.9207 75.3552 74.029C75.5176 74.1463 75.7342 74.2004 75.9958 74.2004H76.1763C76.3206 74.2004 76.4199 74.2365 76.492 74.3177C76.5642 74.3989 76.6003 74.5343 76.6003 74.7147C76.6003 74.9222 76.5642 75.0666 76.5011 75.1478C76.4379 75.229 76.3206 75.2651 76.1763 75.2651C75.8966 75.2651 75.653 75.229 75.4454 75.1658C75.265 75.0937 75.1026 74.9403 74.9763 74.7147ZM73.3252 77.3132L73.2169 77.2049V76.2756L73.3252 76.1673H74.2184L74.3267 76.2756V77.2049L74.2184 77.3132H73.3252ZM74.7146 77.3132L74.6064 77.2049V76.2756L74.7146 76.1673H75.6169L75.7251 76.2756V77.2049L75.6169 77.3132H74.7146Z" fill="white"/>
<path d="M78.7567 73.5328C78.7567 73.9749 79.0184 74.1914 79.5326 74.1914C79.686 74.1914 79.8123 74.1824 79.9116 74.1643C80.0018 74.1463 80.083 74.1102 80.1371 74.0561C80.1913 74.0019 80.2274 73.9207 80.2454 73.8125C80.2634 73.7042 80.2725 73.5598 80.2725 73.3704V71.7554L80.3807 71.6471H81.3642L81.4725 71.7554V73.5057C81.4725 73.7313 81.5446 73.9027 81.68 74.011C81.8153 74.1192 81.9958 74.1734 82.2303 74.1734C82.4018 74.1734 82.5371 74.1643 82.6363 74.1373C82.7356 74.1102 82.8078 74.0651 82.8529 73.9839C82.898 73.9117 82.9341 73.8035 82.9431 73.6681C82.9612 73.5328 82.9611 73.3523 82.9611 73.1268V70.9163L83.0694 70.808H84.0529L84.1611 70.9163V73.8937C84.1611 74.3809 84.0619 74.7328 83.8544 74.9313C83.6469 75.1388 83.304 75.238 82.8258 75.238H82.3657C82.113 75.238 81.9055 75.1929 81.7341 75.0937C81.5627 74.9944 81.4273 74.8591 81.3371 74.6786C81.2379 74.8861 81.0935 75.0305 80.904 75.1117C80.7146 75.1929 80.4619 75.238 80.1371 75.238H79.668C79.1627 75.238 78.8199 75.0485 78.6304 74.6696C78.5311 74.8771 78.3868 75.0215 78.1973 75.1117C78.0078 75.2019 77.7552 75.238 77.4304 75.238H76.2124C76.068 75.238 75.9597 75.2019 75.8876 75.1388C75.8154 75.0666 75.7793 74.9403 75.7793 74.7508C75.7793 74.5343 75.8154 74.3809 75.8785 74.2997C75.9417 74.2095 76.059 74.1734 76.2034 74.1734H77.0605C77.286 74.1734 77.4214 74.1192 77.4755 74.0019C77.5297 73.8846 77.5657 73.6681 77.5657 73.3613V71.7463L77.674 71.6381H78.6575L78.7657 71.7463V73.5328H78.7567Z" fill="white"/>
<path d="M85.9388 71.7103L85.8305 71.602V70.7449L85.9388 70.6366H87.5628C88.1583 70.6366 88.6274 70.79 88.9793 71.0877C89.3312 71.3854 89.5026 71.8727 89.5026 72.5493V73.5508C89.5026 73.7583 89.5838 73.9207 89.7372 74.029C89.8906 74.1463 90.1071 74.2004 90.3778 74.2004H90.5582C90.7026 74.2004 90.8109 74.2365 90.8831 74.3177C90.9552 74.3989 90.9913 74.5343 90.9913 74.7147C90.9913 74.9222 90.9552 75.0666 90.8921 75.1478C90.8289 75.229 90.7206 75.2651 90.5673 75.2651C90.2695 75.2651 90.0079 75.229 89.7913 75.1478C89.5748 75.0666 89.4034 74.9042 89.2861 74.6516C89.1507 74.8952 88.9703 75.0576 88.7447 75.1388C88.5192 75.22 88.2214 75.2651 87.8605 75.2651H85.4696L85.3613 75.1568V74.3087L85.4696 74.2004H87.4545C87.644 74.2004 87.7974 74.1824 87.9147 74.1553C88.032 74.1283 88.1132 74.0831 88.1763 74.011C88.2395 73.9478 88.2756 73.8576 88.2936 73.7493C88.3117 73.641 88.3207 73.5147 88.3207 73.3523V72.6396C88.3207 72.3148 88.2305 72.0802 88.05 71.9268C87.8696 71.7734 87.5989 71.7012 87.229 71.7012H85.9388V71.7103Z" fill="white"/>
<path d="M92.8496 73.5328C92.8496 73.7493 92.9308 73.9117 93.0932 74.02C93.2556 74.1373 93.4722 74.1914 93.7428 74.1914H93.9233C94.0676 74.1914 94.1759 74.2275 94.2481 74.3087C94.3203 74.3899 94.3564 74.5252 94.3564 74.7057C94.3564 74.9132 94.3203 75.0576 94.2571 75.1388C94.194 75.22 94.0767 75.2561 93.9323 75.2561C93.6526 75.2561 93.409 75.22 93.2105 75.1568C93.003 75.0846 92.8406 74.9403 92.7233 74.7057C92.6241 74.9132 92.4797 75.0576 92.2812 75.1388C92.0917 75.22 91.8211 75.2561 91.4782 75.2561H90.6301C90.4857 75.2561 90.3775 75.229 90.3143 75.1839C90.2421 75.1388 90.2061 75.0305 90.2061 74.8771C90.2061 74.6967 90.2421 74.5343 90.3053 74.3989C90.3685 74.2546 90.4857 74.1914 90.6391 74.1914H91.1534C91.2707 74.1914 91.3699 74.1734 91.4421 74.1373L91.5955 73.9659C91.6316 73.8847 91.6496 73.7854 91.6587 73.6591C91.6677 73.5328 91.6677 73.3794 91.6677 73.1899V70.9343L91.776 70.826H92.7594L92.8677 70.9343V73.5328H92.8496ZM91.7489 69.7614L91.6406 69.6531V68.7238L91.7489 68.6156H92.7774L92.8857 68.7238V69.6531L92.7774 69.7614H91.7489Z" fill="white"/>
<path d="M93.4541 74.7237C93.4541 74.5162 93.4902 74.3719 93.5533 74.2997C93.6255 74.2275 93.7338 74.1914 93.8782 74.1914H94.9248V72.9824C94.9248 72.5493 94.9879 72.1794 95.1052 71.8817C95.2225 71.5839 95.3849 71.3403 95.5834 71.1599C95.7819 70.9794 96.0074 70.8441 96.2691 70.7629C96.5307 70.6817 96.7924 70.6366 97.0721 70.6366C97.3879 70.6366 97.6856 70.6727 97.9563 70.7629C98.227 70.8441 98.4615 70.9704 98.66 71.1418C98.8585 71.3133 99.0119 71.5298 99.1202 71.8095C99.2285 72.0802 99.2826 72.414 99.2826 72.7929C99.2826 73.0636 99.2465 73.3253 99.1653 73.5959C99.0841 73.8576 99.0029 74.0561 98.9127 74.2004H100.004C100.158 74.2004 100.266 74.2365 100.329 74.3087C100.392 74.3809 100.428 74.5162 100.428 74.7328C100.428 74.9222 100.392 75.0666 100.32 75.1478C100.248 75.229 100.14 75.2741 100.004 75.2741H98.9668C99.1202 75.4816 99.1924 75.7252 99.1924 76.023C99.1924 76.5102 99.0029 76.8891 98.633 77.1508C98.2631 77.4124 97.7488 77.5478 97.1082 77.5478C96.7834 77.5478 96.4856 77.5207 96.215 77.4575C95.9443 77.3944 95.7187 77.3042 95.5293 77.1688C95.3398 77.0335 95.1864 76.8621 95.0872 76.6545C94.9789 76.447 94.9338 76.1944 94.9338 75.8876V75.2651H93.8872C93.5894 75.2651 93.4541 75.0846 93.4541 74.7237ZM97.0901 71.7103C96.7924 71.7103 96.5578 71.8095 96.3864 72.008C96.215 72.2065 96.1247 72.4952 96.1247 72.8741V74.2004H97.1804C97.3428 74.2004 97.4871 74.1644 97.5954 74.0922C97.7127 74.02 97.8119 73.9207 97.8841 73.8035C97.9563 73.6862 98.0104 73.5508 98.0465 73.3974C98.0826 73.2441 98.1007 73.0907 98.1007 72.9283C98.1007 72.5223 98.0104 72.2155 97.839 72.017C97.6586 71.8095 97.4149 71.7103 97.0901 71.7103ZM97.0901 76.5012C97.424 76.5012 97.6586 76.447 97.8029 76.3388C97.9382 76.2305 98.0104 76.0771 98.0104 75.8786C98.0104 75.7703 98.0014 75.6801 97.9743 75.5989C97.9473 75.5177 97.9022 75.4455 97.821 75.3914C97.7488 75.3373 97.6405 75.2922 97.5142 75.2651C97.3789 75.238 97.2164 75.22 97.0089 75.22H96.1247V75.7884C96.1157 76.2666 96.4405 76.5012 97.0901 76.5012Z" fill="white"/>
<path d="M99.9863 75.2651C99.8419 75.2651 99.7337 75.229 99.6615 75.1658C99.5893 75.0937 99.5532 74.9583 99.5532 74.7508C99.5532 74.5523 99.5893 74.4079 99.6525 74.3267C99.7246 74.2455 99.8329 74.2004 99.9773 74.2004H100.501C100.681 74.2004 100.807 74.1643 100.889 74.0831C100.97 74.0019 101.006 73.8576 101.006 73.641V68.1193L101.114 68.011H102.098L102.206 68.1193V73.9298C102.206 74.3899 102.107 74.7328 101.917 74.9493C101.728 75.1658 101.412 75.2741 100.97 75.2741H99.9863V75.2651Z" fill="white"/>
<path d="M104.813 75.1568L104.705 75.2651H103.722L103.613 75.1568V68.1103L103.722 68.002H104.705L104.813 68.1103V75.1568Z" fill="white"/>
<path d="M115.126 74.0741C115.207 73.9929 115.253 73.8486 115.253 73.632V70.9433L115.361 70.8351H116.344L116.453 70.9433V73.9207C116.453 74.3809 116.353 74.7237 116.164 74.9403C115.974 75.1568 115.641 75.2651 115.18 75.2651H109.848C109.397 75.2651 109.081 75.1568 108.892 74.9403C108.702 74.7237 108.603 74.3809 108.603 73.9117V71.62L108.711 71.5118H109.695L109.803 71.62V73.641C109.803 73.8576 109.839 74.0019 109.929 74.0831C110.011 74.1643 110.137 74.2095 110.317 74.2095H114.738C114.919 74.1914 115.045 74.1553 115.126 74.0741ZM111.418 70.393L111.31 70.2847V69.3554L111.418 69.2471H112.311L112.42 69.3554V70.2847L112.311 70.393H111.418ZM112.807 70.393L112.699 70.2847V69.3554L112.807 69.2471H113.701L113.809 69.3554V70.2847L113.701 70.393H112.807Z" fill="white"/>
<path d="M118.879 75.1568L118.78 75.2651H117.797L117.688 75.1568V68.1103L117.797 68.002H118.78L118.879 68.1103V75.1568Z" fill="white"/>
<path d="M119.701 77.4214L119.592 77.3132V76.456L119.701 76.3478H119.935C120.233 76.3478 120.449 76.2756 120.585 76.1222C120.711 75.9688 120.783 75.7433 120.783 75.4365V70.9253L120.892 70.817H121.875L121.983 70.9253V75.4546C121.983 76.7538 121.361 77.4124 120.107 77.4124H119.701V77.4214Z" fill="white"/>
<path d="M123.336 68.1103L123.445 68.002H124.428L124.536 68.1103V73.632C124.536 73.8486 124.572 73.9929 124.663 74.0741C124.744 74.1553 124.87 74.2004 125.051 74.2004H125.421C125.565 74.2004 125.673 74.2365 125.745 74.3267C125.818 74.4079 125.854 74.5523 125.854 74.7508C125.854 74.9764 125.818 75.1207 125.754 75.1749C125.682 75.238 125.574 75.2651 125.43 75.2651H124.591C124.148 75.2651 123.833 75.1568 123.634 74.9403C123.445 74.7237 123.345 74.3809 123.345 73.9207V68.1103H123.336Z" fill="white"/>
<path d="M128.028 73.5328C128.028 73.7583 128.091 73.9298 128.209 74.038C128.326 74.1463 128.515 74.2004 128.777 74.2004C128.957 74.2004 129.093 74.1914 129.201 74.1643C129.309 74.1373 129.382 74.0922 129.436 74.011C129.49 73.9298 129.517 73.8215 129.526 73.6952C129.535 73.5598 129.544 73.3794 129.544 73.1538V71.7915L129.652 71.6832H130.636L130.744 71.7915V73.5779C130.744 73.8035 130.807 73.9568 130.951 74.0651C131.087 74.1734 131.267 74.2185 131.493 74.2185C131.655 74.2185 131.791 74.2095 131.89 74.1824C131.989 74.1553 132.07 74.1102 132.124 74.029C132.178 73.9568 132.215 73.8486 132.224 73.7132C132.242 73.5779 132.242 73.3974 132.242 73.1719V70.9614L132.35 70.8531H133.333L133.442 70.9614V73.5598C133.442 73.7764 133.523 73.9388 133.685 74.0471C133.848 74.1644 134.064 74.2185 134.326 74.2185H134.506C134.651 74.2185 134.759 74.2546 134.831 74.3358C134.903 74.417 134.939 74.5523 134.939 74.7328C134.939 74.9403 134.903 75.0846 134.831 75.1658C134.759 75.247 134.651 75.2831 134.506 75.2831C134.227 75.2831 133.992 75.247 133.784 75.1839C133.577 75.1117 133.424 74.9673 133.297 74.7328C133.198 74.9313 133.054 75.0756 132.864 75.1568C132.675 75.238 132.422 75.2831 132.097 75.2831H131.637C131.384 75.2831 131.177 75.238 131.006 75.1388C130.825 75.0395 130.699 74.9042 130.6 74.7237C130.5 74.9313 130.356 75.0756 130.166 75.1568C129.977 75.238 129.724 75.2831 129.4 75.2831H128.93C128.425 75.2831 128.082 75.0937 127.893 74.7147C127.794 74.9222 127.649 75.0666 127.46 75.1568C127.27 75.247 127.018 75.2831 126.702 75.2831H125.547L125.33 75.2741L125.168 75.211L125.069 75.0666C125.051 75.0034 125.033 74.9132 125.033 74.7959C125.033 74.5794 125.069 74.426 125.132 74.3448C125.204 74.2546 125.303 74.2185 125.457 74.2185H126.314C126.44 74.2185 126.539 74.2004 126.612 74.1643C126.675 74.1283 126.729 74.0651 126.765 73.9749C126.801 73.8937 126.819 73.7854 126.819 73.6501C126.819 73.5147 126.828 73.3523 126.828 73.1629V71.8005L126.936 71.6922H127.92L128.028 71.8005V73.5328ZM128.994 69.7614L128.885 69.6531V68.7238L128.994 68.6156H129.887L129.995 68.7238V69.6531L129.887 69.7614H128.994ZM129.679 68.39L129.571 68.2817V67.3524L129.679 67.2441H130.572L130.681 67.3524V68.2817L130.572 68.39H129.679ZM130.383 69.7614L130.275 69.6531V68.7238L130.383 68.6156H131.276L131.384 68.7238V69.6531L131.276 69.7614H130.383Z" fill="white"/>
<path d="M136.762 74.7147C136.663 74.9222 136.509 75.0666 136.311 75.1478C136.112 75.229 135.842 75.2651 135.499 75.2651H134.506C134.362 75.2651 134.263 75.229 134.182 75.1658C134.109 75.0937 134.073 74.9583 134.073 74.7598C134.073 74.5523 134.109 74.4079 134.172 74.3267C134.245 74.2455 134.353 74.2004 134.497 74.2004H135.192C135.318 74.2004 135.418 74.1824 135.49 74.1463L135.643 73.9659C135.67 73.8847 135.688 73.7764 135.697 73.6501C135.706 73.5147 135.706 73.3613 135.706 73.1629V70.9524L135.76 70.8621L135.878 70.8441H136.789L136.897 70.9524V73.5508C136.897 73.7674 136.978 73.9298 137.141 74.038C137.303 74.1553 137.52 74.2095 137.781 74.2095H137.962C138.106 74.2095 138.215 74.2455 138.287 74.3267C138.359 74.4079 138.395 74.5433 138.395 74.7237C138.395 74.9313 138.359 75.0756 138.296 75.1568C138.233 75.238 138.115 75.2741 137.971 75.2741C137.691 75.2741 137.448 75.238 137.249 75.1749C137.042 75.0937 136.879 74.9403 136.762 74.7147ZM135.174 69.7614L135.066 69.6531V68.7238L135.174 68.6156H136.067L136.175 68.7238V69.6531L136.067 69.7614H135.174ZM136.563 69.7614L136.455 69.6531V68.7238L136.563 68.6156H137.457L137.565 68.7238V69.6531L137.457 69.7614H136.563Z" fill="white"/>
<path d="M140.533 73.5328C140.533 73.9749 140.795 74.1914 141.309 74.1914C141.462 74.1914 141.589 74.1824 141.688 74.1643C141.778 74.1463 141.859 74.1102 141.913 74.0561C141.968 74.0019 142.004 73.9207 142.022 73.8125C142.04 73.7042 142.049 73.5598 142.049 73.3704V71.7554L142.157 71.6471H143.141L143.249 71.7554V73.5057C143.249 73.7313 143.321 73.9027 143.456 74.011C143.592 74.1192 143.772 74.1734 144.007 74.1734C144.178 74.1734 144.313 74.1643 144.413 74.1373C144.512 74.1102 144.584 74.0651 144.629 73.9839C144.674 73.9117 144.71 73.8035 144.719 73.6681C144.738 73.5328 144.738 73.3523 144.738 73.1268V70.9163L144.846 70.808H145.829L145.937 70.9163V73.8937C145.937 74.3809 145.829 74.7328 145.631 74.9313C145.423 75.1388 145.08 75.238 144.602 75.238H144.142C143.889 75.238 143.682 75.1929 143.51 75.0937C143.339 74.9944 143.204 74.8591 143.113 74.6786C143.014 74.8861 142.87 75.0305 142.68 75.1117C142.491 75.1929 142.238 75.238 141.913 75.238H141.444C140.939 75.238 140.596 75.0485 140.407 74.6696C140.307 74.8771 140.163 75.0215 139.974 75.1117C139.784 75.2019 139.532 75.238 139.207 75.238H137.989C137.844 75.238 137.736 75.2019 137.664 75.1388C137.592 75.0666 137.556 74.9403 137.556 74.7508C137.556 74.5343 137.592 74.3809 137.655 74.2997C137.718 74.2095 137.826 74.1734 137.98 74.1734H138.837C139.053 74.1734 139.198 74.1192 139.252 74.0019C139.306 73.8846 139.333 73.6681 139.333 73.3613V71.7463L139.441 71.6381H140.425L140.533 71.7463V73.5328Z" fill="white"/>
<path d="M151.803 68.1103L151.911 68.002H152.894L153.003 68.1103V73.641C153.066 74.011 153.363 74.2004 153.878 74.2004H154.058C154.203 74.2004 154.302 74.2365 154.374 74.3177C154.446 74.3989 154.482 74.5343 154.482 74.7147C154.482 74.9222 154.446 75.0666 154.383 75.1478C154.32 75.229 154.203 75.2651 154.058 75.2651C153.787 75.2651 153.553 75.229 153.345 75.1658C153.138 75.1027 152.975 74.9493 152.849 74.7237C152.75 74.9222 152.606 75.0666 152.407 75.1388C152.209 75.22 151.956 75.2561 151.622 75.2561H147.066L146.958 75.1478V74.2907L147.066 74.1824H148.97V69.59L149.078 69.4817H150.061L150.17 69.59V74.1824H151.288C151.406 74.1824 151.505 74.1643 151.577 74.1373L151.73 73.9749C151.766 73.9027 151.785 73.8035 151.794 73.6771C151.803 73.5508 151.803 73.3974 151.803 73.226V68.1103Z" fill="white"/>
<path d="M154.067 75.2651C153.923 75.2651 153.815 75.229 153.751 75.1658C153.679 75.0937 153.643 74.9583 153.643 74.7508C153.643 74.5523 153.679 74.4079 153.742 74.3267C153.814 74.2455 153.923 74.2004 154.067 74.2004H154.59C154.771 74.2004 154.897 74.1643 154.978 74.0831C155.06 74.0019 155.105 73.8576 155.105 73.641V68.1193L155.213 68.011H156.196L156.305 68.1193V73.9298C156.305 74.3899 156.205 74.7328 156.016 74.9493C155.826 75.1658 155.511 75.2741 155.069 75.2741H154.067V75.2651Z" fill="white"/>
<path d="M67.3433 79.8846L67.4335 79.8034H70.9342L71.0154 79.8846V80.5973L70.9342 80.6785H68.3718L68.3177 80.7327V82.086L68.3718 82.1402H70.5282L70.6184 82.2214V82.9341L70.5282 83.0153H68.3718L68.3177 83.0695V84.477L68.3718 84.5221H70.9342L71.0154 84.6123V85.3251L70.9342 85.4063H67.4335L67.3433 85.3251V79.8846Z" fill="white"/>
<path d="M74.5341 85.4063L74.4529 85.3251V83.0334C74.4529 82.7717 74.3898 82.5642 74.2634 82.4108C74.1371 82.2484 73.9477 82.1672 73.7041 82.1672C73.4604 82.1672 73.271 82.2484 73.1447 82.4108C73.0093 82.5732 72.9462 82.7808 72.9462 83.0334V85.3251L72.865 85.4063H72.1071L72.0259 85.3251V81.5266L72.1071 81.4454H72.865L72.9462 81.5266V81.8154H72.9552C73.0454 81.689 73.1717 81.5808 73.3432 81.4906C73.5146 81.4003 73.7311 81.3552 74.0018 81.3552C74.2183 81.3552 74.4078 81.3913 74.5702 81.4635C74.7416 81.5357 74.886 81.6439 75.0033 81.7702C75.1206 81.9056 75.2108 82.059 75.274 82.2394C75.3371 82.4199 75.3732 82.6184 75.3732 82.8259V85.3251L75.292 85.4063H74.5341Z" fill="white"/>
<path d="M77.8907 86.9762C77.611 86.9762 77.3403 86.9221 77.0787 86.8138C76.817 86.7055 76.6095 86.5612 76.4561 86.3807L76.4652 86.2634L76.9524 85.7762H77.0787C77.3403 86.0198 77.6291 86.1461 77.9448 86.1461C78.2516 86.1461 78.4772 86.0649 78.6215 85.9115C78.7659 85.7491 78.8381 85.5146 78.8381 85.1988V84.8289H78.829C78.7388 84.9732 78.6035 85.0905 78.4411 85.1717C78.2697 85.2529 78.0621 85.298 77.8005 85.298C77.4667 85.298 77.187 85.2168 76.9524 85.0544C76.7178 84.892 76.5554 84.6484 76.4471 84.3416C76.402 84.1883 76.3659 84.0349 76.3479 83.8815C76.3298 83.7281 76.3208 83.5477 76.3208 83.3311C76.3208 83.1146 76.3298 82.9251 76.3479 82.7808C76.3659 82.6364 76.402 82.483 76.4471 82.3296C76.5554 82.0139 76.7178 81.7702 76.9524 81.6078C77.187 81.4454 77.4667 81.3642 77.8005 81.3642C78.0621 81.3642 78.2697 81.4094 78.4411 81.4906C78.6125 81.5718 78.7388 81.689 78.829 81.8334H78.8381V81.5357L78.9193 81.4545H79.6771L79.7584 81.5357V85.1717C79.7584 85.7401 79.605 86.1822 79.2982 86.507C78.9644 86.8138 78.5042 86.9762 77.8907 86.9762ZM78.017 84.477C78.2065 84.477 78.3599 84.4319 78.4772 84.3416C78.5854 84.2514 78.6757 84.1251 78.7298 83.9627C78.7659 83.8725 78.7839 83.7732 78.802 83.674C78.82 83.5747 78.82 83.4574 78.82 83.3221C78.82 83.0605 78.7839 82.8439 78.7298 82.6725C78.6757 82.5101 78.5854 82.3928 78.4772 82.3026C78.3689 82.2124 78.2065 82.1672 78.017 82.1672C77.6561 82.1672 77.4215 82.3387 77.3133 82.6635C77.2501 82.8349 77.223 83.0514 77.223 83.3131C77.223 83.4484 77.2321 83.5657 77.2411 83.665C77.2591 83.7642 77.2772 83.8635 77.3133 83.9537C77.4215 84.3056 77.6561 84.477 78.017 84.477Z" fill="white"/>
<path d="M81.0211 80.6876L80.9399 80.6064V79.8936L81.0211 79.8124H81.779L81.8602 79.8936V80.6064L81.779 80.6876H81.0211ZM81.0211 85.4063L80.9399 85.3251V81.5266L81.0211 81.4454H81.779L81.8602 81.5266V85.3251L81.779 85.4063H81.0211Z" fill="white"/>
<path d="M85.5776 85.4063L85.4964 85.3251V83.0334C85.4964 82.7717 85.4332 82.5642 85.3069 82.4108C85.1806 82.2484 84.9911 82.1672 84.7475 82.1672C84.5039 82.1672 84.3235 82.2484 84.1881 82.4108C84.0528 82.5732 83.9896 82.7808 83.9896 83.0334V85.3251L83.9084 85.4063H83.1505L83.0693 85.3251V81.5266L83.1505 81.4454H83.9084L83.9896 81.5266V81.8154H83.9986C84.0889 81.689 84.2152 81.5808 84.3866 81.4906C84.558 81.4003 84.7746 81.3552 85.0362 81.3552C85.2528 81.3552 85.4422 81.3913 85.6046 81.4635C85.7761 81.5357 85.9204 81.6439 86.0377 81.7702C86.155 81.9056 86.2543 82.059 86.3174 82.2394C86.3806 82.4199 86.4076 82.6184 86.4076 82.8259V85.3251L86.3264 85.4063H85.5776Z" fill="white"/>
<path d="M89.1505 85.4965C88.7264 85.4965 88.3745 85.3973 88.0948 85.2078C87.8061 85.0093 87.6167 84.7386 87.5084 84.3958C87.4633 84.2695 87.4272 84.1251 87.4091 83.9717C87.3821 83.8183 87.373 83.6289 87.373 83.4214C87.373 83.2138 87.3821 83.0334 87.4091 82.871C87.4272 82.7086 87.4633 82.5732 87.5084 82.4469C87.6167 82.1041 87.8152 81.8334 88.1039 81.6439C88.3926 81.4545 88.7354 81.3552 89.1234 81.3552C89.5384 81.3552 89.8813 81.4545 90.161 81.6439C90.4407 81.8424 90.6392 82.1041 90.7474 82.4469L90.8016 82.6635C90.8196 82.7357 90.8286 82.8169 90.8377 82.9071C90.8467 82.9973 90.8557 83.1056 90.8647 83.2229C90.8738 83.3402 90.8738 83.4755 90.8738 83.6379L90.7835 83.7191H88.3385L88.2843 83.7642L88.3024 83.9266L88.3385 84.0619C88.4738 84.4589 88.7715 84.6664 89.2317 84.6664C89.4572 84.6664 89.6467 84.6304 89.7911 84.5582C89.9444 84.486 90.0617 84.3958 90.161 84.2875L90.2873 84.2695L90.7745 84.6935L90.7835 84.8108C90.6121 85.0093 90.3865 85.1717 90.1159 85.298C89.8362 85.4334 89.5204 85.4965 89.1505 85.4965ZM89.9354 82.9883C89.9354 82.862 89.9174 82.7447 89.8813 82.6454C89.8272 82.483 89.7279 82.3567 89.5926 82.2665C89.4572 82.1763 89.2948 82.1311 89.1054 82.1311C88.9159 82.1311 88.7535 82.1763 88.6091 82.2665C88.4738 82.3567 88.3745 82.483 88.3204 82.6454C88.2843 82.7447 88.2663 82.862 88.2663 82.9883L88.3204 83.0424H89.8723L89.9354 82.9883Z" fill="white"/>
<path d="M93.4361 85.4965C93.0121 85.4965 92.6602 85.3973 92.3805 85.2078C92.1008 85.0093 91.9023 84.7386 91.794 84.3958C91.7489 84.2695 91.7128 84.1251 91.6948 83.9717C91.6677 83.8183 91.6587 83.6289 91.6587 83.4214C91.6587 83.2138 91.6677 83.0334 91.6948 82.871C91.7128 82.7086 91.7489 82.5732 91.794 82.4469C91.9023 82.1041 92.1008 81.8334 92.3895 81.6439C92.6782 81.4545 93.0121 81.3552 93.409 81.3552C93.8241 81.3552 94.1669 81.4545 94.4466 81.6439C94.7263 81.8424 94.9248 82.1041 95.0331 82.4469L95.0872 82.6635C95.1053 82.7357 95.1143 82.8169 95.1233 82.9071C95.1323 82.9973 95.1414 83.1056 95.1504 83.2229C95.1594 83.3402 95.1594 83.4755 95.1594 83.6379L95.0692 83.7191H92.6241L92.57 83.7642L92.588 83.9266L92.6241 84.0619C92.7594 84.4589 93.0572 84.6664 93.5173 84.6664C93.7429 84.6664 93.9323 84.6304 94.0767 84.5582C94.2211 84.486 94.3474 84.3958 94.4466 84.2875L94.5729 84.2695L95.0602 84.6935L95.0692 84.8108C94.8977 85.0093 94.6722 85.1717 94.4015 85.298C94.1218 85.4334 93.806 85.4965 93.4361 85.4965ZM94.2301 82.9883C94.2301 82.862 94.212 82.7447 94.1759 82.6454C94.1218 82.483 94.0226 82.3567 93.8872 82.2665C93.7519 82.1763 93.5895 82.1311 93.4 82.1311C93.2105 82.1311 93.0391 82.1763 92.9038 82.2665C92.7685 82.3567 92.6692 82.483 92.6151 82.6454C92.579 82.7447 92.5609 82.862 92.5609 82.9883L92.6151 83.0424H94.1669L94.2301 82.9883Z" fill="white"/>
<path d="M96.2331 85.4063L96.1519 85.3251V81.5266L96.2331 81.4454H96.9909L97.0721 81.5266V81.8605H97.0812C97.1714 81.7071 97.3067 81.5808 97.4782 81.4906C97.6496 81.4003 97.8571 81.3462 98.1097 81.3462C98.2721 81.3462 98.4165 81.3733 98.5699 81.4364C98.7142 81.4906 98.8405 81.5718 98.9398 81.68L98.9578 81.7973L98.5248 82.3477L98.4075 82.3657C98.3172 82.3026 98.218 82.2575 98.1278 82.2214C98.0375 82.1853 97.9293 82.1763 97.821 82.1763C97.5594 82.1763 97.3699 82.2665 97.2526 82.4379C97.1353 82.6093 97.0812 82.862 97.0812 83.1778V85.3251L97 85.4063H96.2331Z" fill="white"/>
<path d="M99.716 80.6876L99.6348 80.6064V79.8936L99.716 79.8124H100.474L100.555 79.8936V80.6064L100.474 80.6876H99.716ZM99.716 85.4063L99.6348 85.3251V81.5266L99.716 81.4454H100.474L100.555 81.5266V85.3251L100.474 85.4063H99.716Z" fill="white"/>
<path d="M104.272 85.4063L104.191 85.3251V83.0334C104.191 82.7717 104.128 82.5642 104.002 82.4108C103.875 82.2484 103.686 82.1672 103.442 82.1672C103.199 82.1672 103.018 82.2484 102.883 82.4108C102.748 82.5732 102.684 82.7808 102.684 83.0334V85.3251L102.603 85.4063H101.845L101.764 85.3251V81.5266L101.845 81.4454H102.603L102.684 81.5266V81.8154H102.693C102.784 81.689 102.91 81.5808 103.081 81.4906C103.253 81.4003 103.469 81.3552 103.731 81.3552C103.948 81.3552 104.137 81.3913 104.299 81.4635C104.471 81.5357 104.615 81.6439 104.733 81.7702C104.85 81.9056 104.949 82.059 105.012 82.2394C105.075 82.4199 105.102 82.6184 105.102 82.8259V85.3251L105.021 85.4063H104.272Z" fill="white"/>
<path d="M107.628 86.9762C107.349 86.9762 107.078 86.9221 106.816 86.8138C106.555 86.7055 106.347 86.5612 106.194 86.3807L106.203 86.2634L106.69 85.7762H106.816C107.078 86.0198 107.358 86.1461 107.683 86.1461C107.989 86.1461 108.215 86.0649 108.359 85.9115C108.504 85.7491 108.576 85.5146 108.576 85.1988V84.8289H108.567C108.477 84.9732 108.341 85.0905 108.179 85.1717C108.007 85.2529 107.8 85.298 107.538 85.298C107.204 85.298 106.925 85.2168 106.69 85.0544C106.465 84.892 106.293 84.6484 106.185 84.3416C106.131 84.1883 106.104 84.0349 106.086 83.8815C106.068 83.7281 106.059 83.5477 106.059 83.3311C106.059 83.1146 106.068 82.9251 106.086 82.7808C106.104 82.6364 106.14 82.483 106.185 82.3296C106.284 82.0139 106.456 81.7702 106.69 81.6078C106.925 81.4454 107.204 81.3642 107.538 81.3642C107.8 81.3642 108.007 81.4094 108.179 81.4906C108.35 81.5718 108.477 81.689 108.567 81.8334H108.576V81.5357L108.657 81.4545H109.415L109.496 81.5357V85.1717C109.496 85.7401 109.343 86.1822 109.027 86.507C108.702 86.8138 108.242 86.9762 107.628 86.9762ZM107.755 84.477C107.944 84.477 108.098 84.4319 108.215 84.3416C108.323 84.2514 108.413 84.1251 108.468 83.9627C108.504 83.8725 108.522 83.7732 108.54 83.674C108.558 83.5747 108.558 83.4574 108.558 83.3221C108.558 83.0605 108.522 82.8439 108.468 82.6725C108.413 82.5101 108.323 82.3928 108.215 82.3026C108.098 82.2124 107.953 82.1672 107.755 82.1672C107.394 82.1672 107.159 82.3387 107.051 82.6635C106.988 82.8349 106.961 83.0514 106.961 83.3131C106.961 83.4484 106.97 83.5657 106.979 83.665C106.988 83.7642 107.015 83.8635 107.051 83.9537C107.159 84.3056 107.394 84.477 107.755 84.477Z" fill="white"/>
<path d="M112.618 84.1161C112.591 84.0259 112.564 83.9447 112.546 83.8544C112.528 83.7642 112.509 83.665 112.5 83.5567C112.491 83.4484 112.482 83.3131 112.473 83.1597C112.464 83.0063 112.464 82.8169 112.464 82.5913C112.464 82.3748 112.464 82.1853 112.473 82.0319C112.482 81.8785 112.482 81.7432 112.5 81.6349C112.509 81.5267 112.528 81.4274 112.546 81.3372C112.564 81.256 112.591 81.1658 112.618 81.0755C112.762 80.6154 112.997 80.2725 113.34 80.0379C113.673 79.8124 114.088 79.6951 114.558 79.6951C115.009 79.6951 115.397 79.8034 115.721 80.0199C116.046 80.2364 116.29 80.5342 116.452 80.9041L116.407 81.0033L115.703 81.3462L115.595 81.3101C115.505 81.1116 115.37 80.9402 115.216 80.7958C115.054 80.6515 114.837 80.5793 114.558 80.5793C114.287 80.5793 114.07 80.6425 113.917 80.7778C113.755 80.9131 113.637 81.0936 113.556 81.3191L113.511 81.4996C113.502 81.5627 113.484 81.6349 113.475 81.7342C113.466 81.8334 113.457 81.9507 113.457 82.086C113.457 82.2214 113.448 82.3928 113.448 82.5913C113.448 82.7988 113.448 82.9702 113.457 83.1056C113.457 83.2409 113.466 83.3582 113.475 83.4484C113.484 83.5477 113.493 83.6199 113.511 83.683L113.556 83.8635C113.628 84.089 113.755 84.2785 113.917 84.4048C114.079 84.5401 114.296 84.6033 114.558 84.6033C114.837 84.6033 115.054 84.5311 115.216 84.3868C115.379 84.2424 115.505 84.071 115.595 83.8725L115.703 83.8364L116.407 84.1702L116.452 84.2695C116.29 84.6394 116.046 84.9371 115.721 85.1537C115.397 85.3702 115.009 85.4785 114.558 85.4785C114.079 85.4785 113.673 85.3612 113.34 85.1356C113.006 84.9281 112.762 84.5853 112.618 84.1161Z" fill="white"/>
<path d="M118.907 85.4965C118.501 85.4965 118.158 85.3973 117.869 85.2078C117.58 85.0183 117.382 84.7477 117.274 84.3958C117.228 84.2514 117.192 84.1071 117.174 83.9627C117.156 83.8183 117.138 83.6379 117.138 83.4123C117.138 83.1958 117.147 83.0063 117.174 82.862C117.192 82.7176 117.228 82.5733 117.274 82.4289C117.382 82.086 117.58 81.8154 117.869 81.6259C118.158 81.4364 118.501 81.3372 118.907 81.3372C119.304 81.3372 119.655 81.4364 119.944 81.6259C120.233 81.8154 120.431 82.086 120.54 82.4289C120.585 82.5733 120.621 82.7176 120.639 82.862C120.657 83.0063 120.675 83.1868 120.675 83.4123C120.675 83.6289 120.666 83.8183 120.639 83.9627C120.621 84.1071 120.585 84.2514 120.54 84.3958C120.431 84.7386 120.233 85.0093 119.944 85.2078C119.655 85.3973 119.313 85.4965 118.907 85.4965ZM118.907 84.6755C119.096 84.6755 119.249 84.6304 119.367 84.5401C119.493 84.4499 119.583 84.3236 119.637 84.1612C119.673 84.0529 119.692 83.9537 119.701 83.8454C119.71 83.7371 119.719 83.6018 119.719 83.4304C119.719 83.259 119.71 83.1236 119.701 83.0154C119.692 82.9161 119.664 82.8078 119.637 82.6905C119.574 82.5281 119.484 82.4018 119.367 82.3116C119.24 82.2214 119.087 82.1763 118.907 82.1763C118.717 82.1763 118.564 82.2214 118.437 82.3116C118.311 82.4018 118.221 82.5281 118.158 82.6905C118.122 82.7988 118.104 82.9071 118.095 83.0154C118.086 83.1236 118.077 83.259 118.077 83.4304C118.077 83.6018 118.086 83.7371 118.095 83.8454C118.104 83.9537 118.131 84.062 118.158 84.1612C118.221 84.3236 118.311 84.4499 118.437 84.5401C118.564 84.6304 118.726 84.6755 118.907 84.6755Z" fill="white"/>
<path d="M124.166 85.4063L124.085 85.3251V83.0334C124.085 82.7717 124.022 82.5642 123.896 82.4108C123.769 82.2484 123.58 82.1672 123.336 82.1672C123.093 82.1672 122.912 82.2484 122.777 82.4108C122.642 82.5732 122.578 82.7808 122.578 83.0334V85.3251L122.497 85.4063H121.739L121.658 85.3251V81.5266L121.739 81.4454H122.497L122.578 81.5266V81.8154H122.588C122.678 81.689 122.804 81.5808 122.975 81.4906C123.147 81.4003 123.363 81.3552 123.625 81.3552C123.842 81.3552 124.031 81.3913 124.194 81.4635C124.365 81.5357 124.509 81.6439 124.627 81.7702C124.744 81.9056 124.843 82.059 124.906 82.2394C124.969 82.4199 125.006 82.6184 125.006 82.8259V85.3251L124.924 85.4063H124.166Z" fill="white"/>
<path d="M127.631 85.4965C127.225 85.4965 126.882 85.4334 126.603 85.298C126.323 85.1627 126.097 85.0273 125.935 84.874V84.7567L126.404 84.2604H126.522C126.666 84.3868 126.837 84.495 127.054 84.5852C127.261 84.6664 127.478 84.7116 127.685 84.7116C127.929 84.7116 128.118 84.6664 128.236 84.5762C128.353 84.486 128.416 84.3777 128.416 84.2424C128.416 84.1251 128.371 84.0259 128.281 83.9537C128.191 83.8815 128.019 83.8364 127.758 83.8093L127.325 83.7642C126.918 83.7191 126.612 83.6018 126.413 83.4033C126.215 83.2048 126.106 82.9341 126.106 82.6003C126.106 82.2124 126.242 81.9146 126.503 81.689C126.765 81.4635 127.144 81.3552 127.649 81.3552C127.965 81.3552 128.245 81.4003 128.497 81.4906C128.75 81.5808 128.967 81.6981 129.138 81.8424L129.156 81.9597L128.75 82.4469L128.633 82.465C128.506 82.3748 128.353 82.3026 128.173 82.2304C127.992 82.1672 127.794 82.1311 127.604 82.1311C127.406 82.1311 127.252 82.1672 127.153 82.2484C127.054 82.3206 127 82.4199 127 82.5462C127 82.6635 127.045 82.7537 127.135 82.8169C127.225 82.889 127.397 82.9341 127.649 82.9612L128.073 83.0063C128.488 83.0514 128.795 83.1687 129.003 83.3762C129.201 83.5747 129.3 83.8454 129.3 84.1702C129.3 84.5672 129.156 84.883 128.876 85.1356C128.597 85.3702 128.182 85.4965 127.631 85.4965Z" fill="white"/>
<path d="M132.702 85.4063L132.62 85.3251V85.0364H132.611C132.503 85.1717 132.368 85.28 132.205 85.3702C132.043 85.4514 131.835 85.4965 131.583 85.4965C131.366 85.4965 131.177 85.4604 131.014 85.3882C130.843 85.3161 130.708 85.2078 130.59 85.0815C130.473 84.9461 130.383 84.7928 130.32 84.6123C130.257 84.4319 130.229 84.2424 130.229 84.0259V81.5266L130.311 81.4454H131.069L131.15 81.5266V83.8183C131.15 84.08 131.213 84.2875 131.33 84.4409C131.448 84.6033 131.637 84.6755 131.89 84.6755C132.124 84.6755 132.305 84.5943 132.44 84.4409C132.566 84.2785 132.629 84.08 132.629 83.8183V81.5266L132.711 81.4454H133.469L133.55 81.5266V85.3251L133.469 85.4063H132.702Z" fill="white"/>
<path d="M135.815 85.4514C135.427 85.4514 135.147 85.3612 134.976 85.1717C134.804 84.9822 134.723 84.7025 134.723 84.3146V79.8846L134.804 79.8034H135.562L135.643 79.8846V84.2604C135.643 84.3958 135.67 84.495 135.725 84.5401C135.779 84.5943 135.869 84.6213 135.986 84.6213H136.167L136.248 84.7025V85.3612L136.167 85.4424H135.815V85.4514Z" fill="white"/>
<path d="M138.233 85.4514C137.836 85.4514 137.547 85.3522 137.385 85.1627C137.213 84.9732 137.132 84.6845 137.132 84.2875V82.1943L137.087 82.1492H136.825L136.744 82.068V81.5176L136.825 81.4364H137.087L137.132 81.3823V80.2996L137.213 80.2184H137.971L138.052 80.2996V81.3823L138.107 81.4364H138.63L138.711 81.5176V82.068L138.63 82.1492H138.107L138.052 82.1943V84.2514C138.052 84.3958 138.079 84.486 138.143 84.5401C138.206 84.5943 138.296 84.6213 138.422 84.6213H138.63L138.711 84.7025V85.3612L138.63 85.4424H138.233V85.4514Z" fill="white"/>
<path d="M142.076 85.4063L141.995 85.3251V85.0364H141.986C141.896 85.1717 141.751 85.28 141.571 85.3702C141.381 85.4514 141.147 85.4965 140.867 85.4965C140.687 85.4965 140.515 85.4694 140.353 85.4243C140.19 85.3792 140.046 85.298 139.929 85.2078C139.811 85.1086 139.712 84.9822 139.64 84.8379C139.568 84.6845 139.532 84.504 139.532 84.2965C139.532 83.8635 139.676 83.5477 139.956 83.3492C140.235 83.1507 140.623 83.0514 141.12 83.0514H141.932L141.986 82.9973V82.8078C141.986 82.5732 141.923 82.4108 141.796 82.3026C141.67 82.1943 141.435 82.1492 141.102 82.1492C140.876 82.1492 140.696 82.1763 140.551 82.2304C140.407 82.2845 140.29 82.3477 140.199 82.4199L140.082 82.4018L139.775 81.8605L139.793 81.7522C139.956 81.6349 140.145 81.5447 140.371 81.4725C140.596 81.4003 140.876 81.3642 141.201 81.3642C141.805 81.3642 142.229 81.4725 142.482 81.6981C142.735 81.9146 142.852 82.2665 142.852 82.7537V85.3431L142.771 85.4243H142.076V85.4063ZM141.102 84.7477C141.39 84.7477 141.607 84.6935 141.76 84.5852C141.914 84.477 141.986 84.3056 141.986 84.071V83.7642L141.932 83.7191H141.273C140.975 83.7191 140.759 83.7642 140.623 83.8454C140.488 83.9266 140.416 84.0619 140.416 84.2514C140.416 84.5852 140.642 84.7477 141.102 84.7477Z" fill="white"/>
<path d="M145.18 85.4514C144.783 85.4514 144.494 85.3522 144.332 85.1627C144.161 84.9732 144.079 84.6845 144.079 84.2875V82.1943L144.034 82.1492H143.773L143.691 82.068V81.5176L143.773 81.4364H144.034L144.079 81.3823V80.2996L144.161 80.2184H144.918L145 80.2996V81.3823L145.045 81.4364H145.568L145.649 81.5176V82.068L145.568 82.1492H145.045L145 82.1943V84.2514C145 84.3958 145.027 84.486 145.09 84.5401C145.153 84.5943 145.243 84.6213 145.37 84.6213H145.577L145.658 84.7025V85.3612L145.577 85.4424H145.18V85.4514Z" fill="white"/>
<path d="M146.741 80.6876L146.66 80.6064V79.8936L146.741 79.8124H147.499L147.58 79.8936V80.6064L147.499 80.6876H146.741ZM146.741 85.4063L146.66 85.3251V81.5266L146.741 81.4454H147.499L147.58 81.5266V85.3251L147.499 85.4063H146.741Z" fill="white"/>
<path d="M150.341 85.4965C149.935 85.4965 149.583 85.3973 149.303 85.2078C149.014 85.0183 148.816 84.7477 148.708 84.3958C148.662 84.2514 148.635 84.1071 148.608 83.9627C148.59 83.8183 148.572 83.6379 148.572 83.4123C148.572 83.1958 148.581 83.0063 148.608 82.862C148.635 82.7176 148.662 82.5733 148.708 82.4289C148.816 82.086 149.014 81.8154 149.303 81.6259C149.592 81.4364 149.935 81.3372 150.341 81.3372C150.738 81.3372 151.09 81.4364 151.378 81.6259C151.667 81.8154 151.865 82.086 151.974 82.4289C152.019 82.5733 152.046 82.7176 152.073 82.862C152.091 83.0063 152.109 83.1868 152.109 83.4123C152.109 83.6289 152.1 83.8183 152.073 83.9627C152.055 84.1071 152.019 84.2514 151.974 84.3958C151.865 84.7386 151.667 85.0093 151.378 85.2078C151.09 85.3973 150.738 85.4965 150.341 85.4965ZM150.341 84.6755C150.53 84.6755 150.684 84.6304 150.81 84.5401C150.927 84.4499 151.026 84.3236 151.08 84.1612C151.117 84.0529 151.135 83.9537 151.144 83.8454C151.153 83.7371 151.162 83.6018 151.162 83.4304C151.162 83.259 151.153 83.1236 151.144 83.0154C151.135 82.9161 151.108 82.8078 151.08 82.6905C151.017 82.5281 150.927 82.4018 150.81 82.3116C150.684 82.2214 150.53 82.1763 150.341 82.1763C150.151 82.1763 149.998 82.2214 149.871 82.3116C149.745 82.4018 149.655 82.5281 149.592 82.6905C149.556 82.7988 149.538 82.9071 149.529 83.0154C149.52 83.1236 149.511 83.259 149.511 83.4304C149.511 83.6018 149.52 83.7371 149.529 83.8454C149.538 83.9537 149.565 84.062 149.592 84.1612C149.655 84.3236 149.745 84.4499 149.871 84.5401C149.998 84.6304 150.151 84.6755 150.341 84.6755Z" fill="white"/>
<path d="M155.601 85.4063L155.519 85.3251V83.0334C155.519 82.7717 155.456 82.5642 155.33 82.4108C155.204 82.2484 155.014 82.1672 154.77 82.1672C154.527 82.1672 154.337 82.2484 154.211 82.4108C154.076 82.5732 154.013 82.7808 154.013 83.0334V85.3251L153.931 85.4063H153.173L153.092 85.3251V81.5266L153.173 81.4454H153.931L154.013 81.5266V81.8154H154.022C154.112 81.689 154.238 81.5808 154.41 81.4906C154.581 81.4003 154.798 81.3552 155.059 81.3552C155.276 81.3552 155.465 81.3913 155.628 81.4635C155.799 81.5357 155.943 81.6439 156.061 81.7702C156.178 81.9056 156.268 82.059 156.331 82.2394C156.395 82.4199 156.431 82.6184 156.431 82.8259V85.3251L156.349 85.4063H155.601Z" fill="white"/>
<path d="M156.9 63.581H67.2441V64.754H156.9V63.581Z" fill="#0084AA"/>
<defs>
<linearGradient id="paint0_linear_203_2559" x1="-0.00281889" y1="43.3575" x2="57.8129" y2="43.3575" gradientUnits="userSpaceOnUse">
<stop stop-color="#0084AA"/>
<stop offset="0.0158" stop-color="#0084AA"/>
<stop offset="1" stop-color="#004A5F"/>
</linearGradient>
<linearGradient id="paint1_linear_203_2559" x1="83.9769" y1="23.093" x2="156.102" y2="23.093" gradientUnits="userSpaceOnUse">
<stop stop-color="#0084AA"/>
<stop offset="0.0158" stop-color="#0084AA"/>
<stop offset="1" stop-color="#004A5F"/>
</linearGradient>
<linearGradient id="paint2_linear_203_2559" x1="67.2482" y1="27.5975" x2="83.4181" y2="27.5975" gradientUnits="userSpaceOnUse">
<stop stop-color="#0084AA"/>
<stop offset="0.0158" stop-color="#0084AA"/>
<stop offset="1" stop-color="#004A5F"/>
</linearGradient>
</defs>
</svg>
