<svg width="232" height="455" viewBox="0 0 232 455" fill="none" xmlns="http://www.w3.org/2000/svg">
<g opacity="0.1">
<path d="M219.025 284.826C197.617 240.001 144.606 217.759 97.6501 193.57C32.4676 159.99 32.375 140.714 32.375 140.714C23.0764 211.395 41.6426 223.875 124.032 261.131C135.338 266.228 181.831 286.864 181.831 336.57C181.831 380.128 146.521 415.468 102.964 415.468C81.061 415.468 61.29 406.541 46.9869 392.145C64.4719 388.438 77.6011 372.93 77.6011 354.333C77.6011 332.986 60.3015 315.718 38.9859 315.718C17.6394 315.718 0.339815 333.017 0.339815 354.333L0.370708 355.538L0 355.754C2.3787 418.063 52.4549 454.979 115.351 454.979C179.761 454.979 232 402.741 232 338.331C232 319.054 227.304 300.859 219.025 284.826Z" fill="url(#paint0_linear_27_191)"/>
<path d="M134.845 199.903C211.211 237.962 226.07 275.836 226.07 275.836C239.94 183.901 159.188 155.696 94.3457 121.097C29.6576 86.5906 29.8429 67.3139 29.8429 67.3139C19.5249 137.841 43.7444 154.522 134.845 199.903Z" fill="url(#paint1_linear_27_191)"/>
<path d="M107.999 99.38C165.242 127.893 176.363 156.314 176.363 156.314C186.743 87.3939 126.256 66.2636 77.6317 40.3143C29.131 14.4266 29.2855 0 29.2855 0C21.5625 52.8565 39.6961 65.3369 107.999 99.38Z" fill="url(#paint2_linear_27_191)"/>
</g>
<defs>
<linearGradient id="paint0_linear_27_191" x1="-0.00190919" y1="297.854" x2="231.993" y2="297.854" gradientUnits="userSpaceOnUse">
<stop stop-color="#0084AA"/>
<stop offset="0.0158" stop-color="#0084AA"/>
<stop offset="1" stop-color="#004A5F"/>
</linearGradient>
<linearGradient id="paint1_linear_27_191" x1="27.6273" y1="171.58" x2="227.635" y2="171.58" gradientUnits="userSpaceOnUse">
<stop stop-color="#0084AA"/>
<stop offset="0.0158" stop-color="#0084AA"/>
<stop offset="1" stop-color="#004A5F"/>
</linearGradient>
<linearGradient id="paint2_linear_27_191" x1="27.6277" y1="78.1609" x2="177.533" y2="78.1609" gradientUnits="userSpaceOnUse">
<stop stop-color="#0084AA"/>
<stop offset="0.0158" stop-color="#0084AA"/>
<stop offset="1" stop-color="#004A5F"/>
</linearGradient>
</defs>
</svg>
