<svg width="210" height="82" viewBox="0 0 210 82" fill="none" xmlns="http://www.w3.org/2000/svg">
<path d="M23.418 47.0992L35.05 41.9219L41.7452 45.8047L43.0978 58.5431L34.8472 58.4753L36.0644 49.6192L34.6443 48.8018L27.6785 54.2517L23.418 47.0992Z" fill="#101012"/>
<path d="M42.4893 45.2617L52.7689 52.8228L56.8265 45.5341L48.5756 42.1962V40.5614L56.8265 37.1553L52.7689 29.9346L42.4893 37.4959V45.2617Z" fill="#101012"/>
<path d="M41.7452 36.8826L43.0978 24.144L34.8472 24.2803L36.0644 33.1359L34.6443 33.9534L27.6109 28.5038L23.418 35.5884L35.05 40.7655L41.7452 36.8826Z" fill="#101012"/>
<path d="M84.3529 39.8173V51.7519H88.7933V36.5425H82.3267V39.8173H84.3529Z" fill="#101012"/>
<path d="M84.213 34.4044C84.6201 34.8298 85.2399 35.0425 86.0725 35.0425C86.9054 35.0425 87.5156 34.8298 87.9039 34.4044C88.3115 33.9601 88.5145 33.405 88.5145 32.7391C88.5145 32.0544 88.3115 31.4993 87.9039 31.0739C87.5156 30.6298 86.9054 30.4077 86.0725 30.4077C85.2399 30.4077 84.6201 30.6298 84.213 31.0739C83.8248 31.4993 83.6304 32.0544 83.6304 32.7391C83.6304 33.405 83.8248 33.9601 84.213 34.4044Z" fill="#101012"/>
<path d="M68.8942 51.418C70.1521 51.9915 71.6971 52.2785 73.5285 52.2785C75.2495 52.2785 76.7293 52.0098 77.9694 51.4734C79.209 50.9371 80.1616 50.1875 80.8277 49.2253C81.5126 48.2447 81.8546 47.1069 81.8546 45.8118C81.8546 44.5537 81.5314 43.4898 80.8836 42.6202C80.2542 41.7321 79.3758 41.0383 78.2467 40.5388C77.1181 40.0206 75.8138 39.6968 74.3335 39.5674L72.7794 39.4287C71.8543 39.3545 71.1882 39.1049 70.7811 38.6792C70.374 38.2537 70.1705 37.754 70.1705 37.1806C70.1705 36.7364 70.2819 36.3295 70.5033 35.9594C70.7256 35.5708 71.0585 35.2656 71.5027 35.0435C71.9652 34.8216 72.5296 34.7105 73.1957 34.7105C73.8985 34.7105 74.4816 34.8399 74.9442 35.0991C75.0459 35.1539 75.1427 35.2124 75.2334 35.2745L75.2554 35.2899C75.2894 35.3134 75.3228 35.3378 75.3554 35.3624C75.6364 35.5771 75.8601 35.8316 76.0265 36.1259C76.2667 36.5331 76.3878 36.9862 76.3878 37.4859H80.8277C80.8277 36.1536 80.5224 34.9972 79.9122 34.0167C79.3016 33.0175 78.4228 32.2498 77.2758 31.713C76.1466 31.1579 74.7869 30.8804 73.1957 30.8804C71.6783 30.8804 70.3648 31.1396 69.2545 31.6576C68.1446 32.1572 67.275 32.8788 66.646 33.8222C66.0349 34.7659 65.7296 35.8855 65.7296 37.1806C65.7296 38.9753 66.3315 40.4184 67.534 41.5102C68.7365 42.6018 70.3465 43.2309 72.3632 43.3973L73.8898 43.5361C75.1289 43.6472 76.0265 43.897 76.5817 44.2854C77.1364 44.6554 77.4142 45.1642 77.4142 45.8118C77.4142 46.1095 77.3656 46.3886 77.268 46.6494C77.1955 46.8428 77.0965 47.0262 76.9704 47.1995C76.6738 47.5878 76.2392 47.8931 75.6657 48.1154C75.0922 48.3373 74.3798 48.4482 73.5285 48.4482C72.585 48.4482 71.8172 48.319 71.2253 48.0595C70.633 47.7821 70.1893 47.4213 69.8927 46.9776C69.6153 46.5334 69.4769 46.0525 69.4769 45.5343H65.064C65.064 46.8478 65.3876 48.0136 66.0349 49.0309C66.6827 50.0303 67.6358 50.8261 68.8942 51.418Z" fill="#101012"/>
<path d="M98.7009 51.945C97.1651 51.945 95.9255 51.7603 94.9821 51.3898C94.0381 51.0015 93.3445 50.3629 92.9003 49.475C92.4749 48.5682 92.2622 47.3474 92.2622 45.8116V39.7891H89.959V36.542H92.2622V32.4346H96.3972V36.542H100.838V39.7891H96.3972V45.9783C96.3972 46.6999 96.5824 47.2548 96.9524 47.6431C97.3407 48.0135 97.8872 48.1982 98.5904 48.1982H100.838V51.945H98.7009Z" fill="#101012"/>
<path fill-rule="evenodd" clip-rule="evenodd" d="M106.184 51.6136C107.183 52.0573 108.33 52.2797 109.625 52.2797C110.901 52.2797 112.031 52.0573 113.011 51.6136C113.992 51.1694 114.806 50.5496 115.453 49.7542C116.101 48.9583 116.536 48.0515 116.757 47.0343H112.678C112.493 47.4968 112.142 47.8851 111.623 48.1996C111.105 48.5141 110.439 48.6718 109.625 48.6718C109.121 48.6718 108.67 48.6117 108.273 48.4925C107.971 48.4018 107.7 48.2766 107.46 48.1166C106.905 47.7467 106.498 47.2282 106.239 46.5626C106.167 46.3729 106.106 46.1744 106.054 45.9678C106.001 45.7584 105.959 45.5405 105.927 45.3137H117.035V43.8149C117.035 42.4272 116.739 41.1506 116.147 39.985C115.555 38.8007 114.695 37.8478 113.566 37.1263C112.456 36.3862 111.087 36.0161 109.458 36.0161C108.219 36.0161 107.108 36.2382 106.128 36.6823C105.166 37.1077 104.361 37.6905 103.714 38.4306C103.066 39.1707 102.567 40.0127 102.215 40.9564C101.882 41.8813 101.715 42.8527 101.715 43.8703V44.4254C101.715 45.4062 101.882 46.3682 102.215 47.3116C102.567 48.2367 103.066 49.0784 103.714 49.8371C104.38 50.5775 105.203 51.1694 106.184 51.6136ZM106.003 42.5693C106.015 42.5106 106.028 42.4527 106.042 42.3957C106.081 42.2389 106.125 42.0884 106.176 41.9448C106.204 41.863 106.235 41.7832 106.267 41.7057C106.544 41.021 106.952 40.503 107.488 40.1515C107.689 40.0201 107.906 39.9133 108.139 39.8311C108.532 39.6932 108.972 39.6241 109.458 39.6241C110.217 39.6241 110.846 39.8 111.346 40.1515C111.864 40.4845 112.252 40.9747 112.511 41.6223C112.533 41.6746 112.552 41.7278 112.572 41.7817C112.602 41.8674 112.631 41.9555 112.657 42.0458C112.696 42.1801 112.731 42.3191 112.761 42.4628C112.783 42.5687 112.802 42.6771 112.819 42.7881H105.96C105.973 42.7139 105.987 42.6411 106.003 42.5693Z" fill="#101012"/>
<path d="M118.867 51.7511V36.542H122.392V40.3726C122.44 40.1449 122.494 39.9263 122.555 39.7167C122.608 39.5402 122.663 39.3699 122.725 39.2064C123.114 38.1702 123.696 37.3932 124.473 36.875C125.25 36.3385 126.203 36.0703 127.332 36.0703H127.526C128.674 36.0703 129.626 36.3385 130.385 36.875C131.162 37.3932 131.745 38.1702 132.133 39.2064L132.164 39.2846L132.19 39.3561C132.208 39.3056 132.226 39.2557 132.244 39.2064C132.651 38.1702 133.244 37.3932 134.021 36.875C134.798 36.3385 135.751 36.0703 136.88 36.0703H137.074C138.22 36.0703 139.183 36.3385 139.96 36.875C140.756 37.3932 141.357 38.1702 141.764 39.2064C142.171 40.2426 142.375 41.5377 142.375 43.0919V51.7511H137.934V42.8421C137.934 42.0095 137.712 41.3342 137.268 40.8162C136.842 40.298 136.232 40.039 135.436 40.039C134.641 40.039 134.012 40.3074 133.549 40.8439C133.086 41.3619 132.855 42.0557 132.855 42.9254V51.7511H128.387V42.8421C128.387 42.0095 128.165 41.3342 127.72 40.8162C127.295 40.298 126.694 40.039 125.917 40.039C125.102 40.039 124.464 40.3074 124.002 40.8439C123.539 41.3619 123.308 42.0557 123.308 42.9254V51.7511H118.867Z" fill="#101012"/>
<path fill-rule="evenodd" clip-rule="evenodd" d="M154.238 48.821V51.7517H157.762V42.4262C157.762 41.0199 157.485 39.8729 156.93 38.9846C156.374 38.078 155.561 37.4027 154.488 36.9587C153.433 36.5147 152.128 36.2925 150.574 36.2925C150.237 36.2925 149.886 36.2961 149.519 36.3035C149.303 36.308 149.08 36.3136 148.853 36.3203C148.243 36.3388 147.65 36.3666 147.077 36.4037L146.639 36.4331C146.414 36.4488 146.203 36.4642 146.004 36.4798C145.854 36.4914 145.713 36.503 145.579 36.5146V40.2615C146.152 40.2244 146.79 40.1873 147.494 40.1504C147.69 40.1401 147.885 40.1305 148.079 40.1216C148.358 40.1086 148.634 40.0974 148.907 40.0876C149.122 40.0797 149.336 40.0728 149.547 40.067C150.213 40.0485 150.75 40.0393 151.157 40.0393C151.971 40.0393 152.563 40.2335 152.933 40.6221C153.303 41.0107 153.488 41.5935 153.488 42.3707V42.4262H150.741C149.39 42.4262 148.197 42.602 147.16 42.9535C146.124 43.2865 145.319 43.8138 144.746 44.5354C144.172 45.2387 143.886 46.1452 143.886 47.2554C143.886 48.2731 144.117 49.1519 144.579 49.8923C145.042 50.6134 145.68 51.1686 146.494 51.5569C147.327 51.9456 148.289 52.14 149.381 52.14C150.435 52.14 151.323 51.9456 152.045 51.5569C152.785 51.1686 153.359 50.6134 153.766 49.8923C153.837 49.7704 153.904 49.6443 153.967 49.5132C154.055 49.328 154.133 49.1331 154.202 48.9287L154.238 48.821ZM153.488 46.1175V44.8963H150.713C149.936 44.8963 149.335 45.0905 148.909 45.4791C148.502 45.8491 148.298 46.358 148.298 47.0056C148.298 47.3104 148.349 47.5873 148.45 47.8372C148.553 48.0875 148.705 48.3098 148.909 48.5042C149.335 48.8746 149.936 49.0593 150.713 49.0593C150.861 49.0593 151.004 49.052 151.142 49.0378C151.255 49.0259 151.364 49.0089 151.47 48.9874C151.674 48.9461 151.866 48.8865 152.045 48.8095C152.453 48.6247 152.785 48.3194 153.044 47.8935C153.303 47.4681 153.451 46.8758 153.488 46.1175Z" fill="#101012"/>
<path d="M160.42 51.7524V36.5434H163.945V41.5634C164.114 40.1303 164.539 38.9749 165.222 38.0976C166.147 36.932 167.478 36.3491 169.218 36.3491H169.801V40.1791H168.691C167.47 40.1791 166.526 40.512 165.86 41.1782C165.194 41.8258 164.86 42.7695 164.86 44.009V51.7524H160.42Z" fill="#101012"/>
<path d="M175.431 44.6473H176.902L181.703 51.7525H186.699L180.611 43.0266L185.617 36.5433H180.954L175.431 43.775V31.4922H170.991V51.7525H175.431V44.6473Z" fill="#101012"/>
</svg>
