<svg width="210" height="85" viewBox="0 0 210 85" fill="none" xmlns="http://www.w3.org/2000/svg">
<path fill-rule="evenodd" clip-rule="evenodd" d="M53.2045 28H34.5176V20.0723H61.132V46.6864H53.2045V28Z" fill="#101012"/>
<path fill-rule="evenodd" clip-rule="evenodd" d="M38.6082 43.7762C37.3976 42.9673 35.9743 42.5356 34.5184 42.5356V34.6079C37.5423 34.6079 40.4983 35.5046 43.0126 37.1846C45.5268 38.8646 47.4864 41.2524 48.6437 44.0461C49.8009 46.8401 50.1038 49.9141 49.5139 52.8798C48.9239 55.8454 47.4679 58.5698 45.3294 60.7079C43.1912 62.8465 40.4669 64.3025 37.5011 64.8925C34.5353 65.4825 31.4612 65.1795 28.6674 64.0223C25.8737 62.8651 23.4859 60.9056 21.8059 58.3912C20.1259 55.8767 19.2292 52.921 19.2292 49.8969H27.1569C27.1569 51.353 27.5887 52.7764 28.3976 53.9867C29.2064 55.1974 30.3561 56.1411 31.7013 56.6979C33.0464 57.2553 34.5265 57.4013 35.9545 57.1169C37.3825 56.8331 38.6942 56.132 39.7237 55.1022C40.7532 54.0728 41.4543 52.761 41.7384 51.333C42.0224 49.905 41.8766 48.4249 41.3195 47.08C40.7623 45.7348 39.8188 44.5851 38.6082 43.7762Z" fill="#101012"/>
<path d="M73.5901 58.9731V25.7119H85.8967C88.5576 25.7119 90.7592 26.1554 92.5014 27.0424C94.2436 27.9293 95.5423 29.1489 96.3976 30.7011C97.2528 32.2532 97.6804 33.9955 97.6804 35.9278C97.6804 37.7651 97.2687 39.4597 96.4452 41.0119C95.6212 42.5324 94.3384 43.7678 92.5962 44.7182C90.8539 45.6368 88.6206 46.0961 85.8967 46.0961H79.672V58.9731H73.5901ZM79.672 41.1545H85.5162C87.6389 41.1545 89.1593 40.6952 90.0781 39.7765C91.0281 38.8262 91.5033 37.5433 91.5033 35.9278C91.5033 34.2806 91.0281 32.9976 90.0781 32.079C89.1593 31.1287 87.6389 30.6535 85.5162 30.6535H79.672V41.1545Z" fill="#101012"/>
<path d="M110.179 59.5428C107.803 59.5428 105.697 59.0359 103.859 58.0224C102.022 57.0089 100.581 55.5832 99.5356 53.7458C98.4904 51.9088 97.9675 49.7866 97.9675 47.3791C97.9675 44.94 98.4745 42.7701 99.488 40.8694C100.533 38.9688 101.959 37.4958 103.765 36.4505C105.602 35.3735 107.756 34.835 110.226 34.835C112.539 34.835 114.582 35.3418 116.356 36.3555C118.13 37.3691 119.508 38.7629 120.49 40.5368C121.504 42.2791 122.01 44.2272 122.01 46.381C122.01 46.7293 121.994 47.0939 121.963 47.4739C121.963 47.8539 121.947 48.2502 121.915 48.662H104.002C104.129 50.4989 104.762 51.9405 105.903 52.9857C107.074 54.031 108.484 54.5538 110.132 54.5538C111.367 54.5538 112.396 54.2845 113.22 53.7458C114.076 53.1757 114.709 52.447 115.121 51.5601H121.298C120.854 53.0492 120.11 54.411 119.065 55.6467C118.051 56.8502 116.784 57.8006 115.263 58.4976C113.774 59.1946 112.08 59.5428 110.179 59.5428ZM110.226 39.7766C108.738 39.7766 107.423 40.2042 106.283 41.0595C105.142 41.8831 104.414 43.1502 104.097 44.8607H115.834C115.738 43.3086 115.168 42.0732 114.123 41.1545C113.077 40.2359 111.779 39.7766 110.226 39.7766Z" fill="#101012"/>
<path d="M124.75 58.9728V35.4051H130.119L130.594 39.3965C131.323 38.0027 132.368 36.894 133.73 36.0704C135.124 35.2468 136.755 34.835 138.624 34.835C141.539 34.835 143.804 35.7536 145.419 37.5909C147.035 39.4281 147.842 42.1207 147.842 45.6685V58.9728H141.76V46.2386C141.76 44.2114 141.349 42.6592 140.525 41.5822C139.702 40.5052 138.418 39.9666 136.676 39.9666C134.966 39.9666 133.556 40.5685 132.448 41.7722C131.371 42.976 130.832 44.6549 130.832 46.8087V58.9728H124.75Z" fill="#101012"/>
<path d="M161.784 58.9717C159.313 58.9717 157.333 58.3695 155.845 57.166C154.356 55.962 153.611 53.824 153.611 50.7513V40.4882H149.572V35.404H153.611L154.323 29.0845H159.693V35.404H166.06V40.4882H159.693V50.7989C159.693 51.9394 159.93 52.7311 160.406 53.1746C160.913 53.5863 161.768 53.7922 162.971 53.7922H165.917V58.9717H161.784Z" fill="#101012"/>
<path d="M177.032 59.5428C175.005 59.5428 173.341 59.2259 172.043 58.5924C170.744 57.9272 169.778 57.056 169.144 55.9791C168.511 54.9021 168.194 53.7145 168.194 52.4157C168.194 50.23 169.049 48.4561 170.76 47.0939C172.47 45.7319 175.036 45.0508 178.457 45.0508H184.444V44.4806C184.444 42.8651 183.985 41.6772 183.066 40.917C182.148 40.1567 181.007 39.7766 179.645 39.7766C178.41 39.7766 177.333 40.0775 176.414 40.6794C175.496 41.2496 174.925 42.1049 174.704 43.2452H168.764C168.922 41.5347 169.493 40.0459 170.475 38.7788C171.489 37.5117 172.787 36.5455 174.371 35.8803C175.955 35.1834 177.729 34.835 179.693 34.835C183.05 34.835 185.696 35.6744 187.628 37.3533C189.56 39.0322 190.526 41.408 190.526 44.4806V58.9728H185.347L184.777 55.1714C184.08 56.4384 183.098 57.4837 181.831 58.3076C180.595 59.1311 178.996 59.5428 177.032 59.5428ZM178.41 54.7914C180.152 54.7914 181.498 54.221 182.449 53.081C183.431 51.9405 184.049 50.5307 184.302 48.852H179.123C177.507 48.852 176.351 49.1526 175.654 49.7548C174.957 50.3248 174.609 51.0377 174.609 51.8929C174.609 52.8116 174.957 53.5245 175.654 54.031C176.351 54.538 177.269 54.7914 178.41 54.7914Z" fill="#101012"/>
</svg>
