<svg width="210" height="78" viewBox="0 0 210 78" fill="none" xmlns="http://www.w3.org/2000/svg">
<path d="M64.1208 53.332L66.1248 52.7918V29.7454L64.1208 29.2052V28.665H73.138C76.5221 28.665 79.0048 29.2532 80.5854 30.4296C82.1886 31.5819 82.9899 33.0943 82.9899 34.9666C82.9899 36.2633 82.6447 37.3075 81.9547 38.0995C81.2646 38.8918 80.3852 39.4799 79.3163 39.8643C78.1809 40.2963 76.9563 40.5244 75.6427 40.5482V40.7286C77.2681 40.8006 78.6819 41.0645 79.8843 41.5206C81.1086 41.9526 82.1216 42.6251 82.9232 43.537C83.747 44.4495 84.1589 45.6139 84.1589 47.0301C84.1589 49.167 83.3462 50.8472 81.7208 52.0718C80.0956 53.272 77.4572 53.8722 73.8058 53.8722H64.1208V53.332ZM73.138 40.1884C73.8729 40.1884 74.5518 39.9721 75.1751 39.5401C75.821 39.0837 76.333 38.4598 76.7116 37.6678C77.1124 36.8513 77.3126 35.9512 77.3126 34.9666C77.3126 33.9104 77.1124 32.9744 76.7116 32.158C76.333 31.3418 75.821 30.7056 75.1751 30.2495C74.5518 29.7934 73.8729 29.5653 73.138 29.5653H71.6353V40.1884H73.138ZM73.8058 52.9717C75.1862 52.9717 76.3108 52.4436 77.1791 51.3873C78.0474 50.3311 78.4813 48.8787 78.4813 47.0301C78.4813 45.1819 78.0474 43.7295 77.1791 42.673C76.3108 41.6167 75.1862 41.0883 73.8058 41.0883H71.6353V52.9717H73.8058Z" fill="#101012"/>
<path d="M84.8162 53.332L86.8202 52.7918V29.7454L84.8162 29.2052V28.665H89.1579C91.1616 28.665 92.1634 29.7454 92.1634 31.9061V52.7918L94.1674 53.332V53.8722H84.8162V53.332Z" fill="#101012"/>
<path d="M103.346 54.4115C100.586 54.4115 98.4147 53.5716 96.8341 51.8909C95.2754 50.1866 94.4963 47.8458 94.4963 44.869C94.4963 41.8922 95.2754 39.5634 96.8341 37.883C98.4147 36.1788 100.586 35.3262 103.346 35.3262C106.107 35.3262 108.267 36.1788 109.825 37.883C111.406 39.5634 112.196 41.8922 112.196 44.869C112.196 47.8458 111.406 50.1866 109.825 51.8909C108.267 53.5716 106.107 54.4115 103.346 54.4115ZM103.346 53.6915C104.237 53.6915 104.983 53.0191 105.584 51.6749C106.207 50.3306 106.519 48.0618 106.519 44.869C106.519 41.6762 106.207 39.4074 105.584 38.0628C104.983 36.7186 104.237 36.0465 103.346 36.0465C102.456 36.0465 101.699 36.7186 101.075 38.0628C100.474 39.4074 100.174 41.6762 100.174 44.869C100.174 48.0618 100.474 50.3306 101.075 51.6749C101.699 53.0191 102.456 53.6915 103.346 53.6915Z" fill="#101012"/>
<path d="M121.058 54.4115C119.678 54.4115 118.442 54.0877 117.351 53.4394C116.817 53.1273 116.383 52.791 116.048 52.431C115.692 52.9591 115.303 53.3674 114.88 53.6554C114.679 53.7994 114.457 53.9313 114.212 54.0518H113.377V47.9299H114.713C115.002 48.9379 115.425 49.8742 115.982 50.7385C117.162 52.5874 118.631 53.5114 120.39 53.5114C121.325 53.5114 122.026 53.2713 122.494 52.791C122.984 52.287 123.229 51.567 123.229 50.6307C123.229 49.8384 122.895 49.1783 122.227 48.6502C121.581 48.098 120.557 47.4255 119.154 46.6335C117.952 45.9852 116.972 45.4092 116.216 44.9049C115.481 44.3767 114.846 43.7287 114.312 42.9602C113.8 42.1682 113.544 41.2439 113.544 40.1877C113.544 38.7473 114.112 37.5826 115.247 36.6948C116.405 35.7826 118.175 35.3262 120.557 35.3262C121.737 35.3262 122.828 35.6624 123.83 36.3345C124.32 36.6469 124.743 36.9708 125.099 37.307C125.388 36.8747 125.778 36.4665 126.268 36.0823C126.646 35.8425 126.869 35.7106 126.936 35.6865H127.771V41.8082H126.435C126.101 40.7757 125.689 39.8515 125.199 39.0353C124.086 37.163 122.761 36.2267 121.225 36.2267C120.624 36.2267 120.112 36.4665 119.689 36.9467C119.266 37.4269 119.054 38.027 119.054 38.7473C119.054 39.6596 119.41 40.4278 120.123 41.0517C120.836 41.6521 121.915 42.3483 123.362 43.1407C124.543 43.7887 125.478 44.3647 126.168 44.869C126.88 45.3492 127.481 45.949 127.971 46.6697C128.483 47.3897 128.739 48.2299 128.739 49.1903C128.739 52.6711 126.179 54.4115 121.058 54.4115Z" fill="#101012"/>
<path d="M137.424 54.4115C136.043 54.4115 134.808 54.0877 133.717 53.4394C133.182 53.1273 132.748 52.791 132.414 52.431C132.058 52.9591 131.668 53.3674 131.245 53.6554C131.045 53.7994 130.822 53.9313 130.577 54.0518H129.742V47.9299H131.078C131.368 48.9379 131.791 49.8742 132.347 50.7385C133.527 52.5874 134.997 53.5114 136.756 53.5114C137.691 53.5114 138.392 53.2713 138.86 52.791C139.35 52.287 139.594 51.567 139.594 50.6307C139.594 49.8384 139.261 49.1783 138.592 48.6502C137.947 48.098 136.923 47.4255 135.52 46.6335C134.318 45.9852 133.338 45.4092 132.581 44.9049C131.847 44.3767 131.212 43.7287 130.678 42.9602C130.165 42.1682 129.909 41.2439 129.909 40.1877C129.909 38.7473 130.477 37.5826 131.613 36.6948C132.771 35.7826 134.54 35.3262 136.923 35.3262C138.103 35.3262 139.193 35.6624 140.196 36.3345C140.685 36.6469 141.108 36.9708 141.464 37.307C141.754 36.8747 142.144 36.4665 142.634 36.0823C143.012 35.8425 143.235 35.7106 143.301 35.6865H144.136V41.8082H142.8C142.467 40.7757 142.055 39.8515 141.565 39.0353C140.452 37.163 139.127 36.2267 137.591 36.2267C136.99 36.2267 136.478 36.4665 136.054 36.9467C135.631 37.4269 135.42 38.027 135.42 38.7473C135.42 39.6596 135.776 40.4278 136.489 41.0517C137.201 41.6521 138.281 42.3483 139.728 43.1407C140.908 43.7887 141.843 44.3647 142.533 44.869C143.246 45.3492 143.847 45.949 144.337 46.6697C144.849 47.3897 145.105 48.2299 145.105 49.1903C145.105 52.6711 142.545 54.4115 137.424 54.4115Z" fill="#101012"/>
<path d="M154.791 54.4115C152.03 54.4115 149.86 53.5716 148.279 51.8909C146.72 50.1866 145.941 47.8458 145.941 44.869C145.941 41.8922 146.72 39.5634 148.279 37.883C149.86 36.1788 152.03 35.3262 154.791 35.3262C157.552 35.3262 159.711 36.1788 161.27 37.883C162.851 39.5634 163.641 41.8922 163.641 44.869C163.641 47.8458 162.851 50.1866 161.27 51.8909C159.711 53.5716 157.552 54.4115 154.791 54.4115ZM154.791 53.6915C155.682 53.6915 156.428 53.0191 157.029 51.6749C157.652 50.3306 157.964 48.0618 157.964 44.869C157.964 41.6762 157.652 39.4074 157.029 38.0628C156.428 36.7186 155.682 36.0465 154.791 36.0465C153.901 36.0465 153.144 36.7186 152.52 38.0628C151.919 39.4074 151.619 41.6762 151.619 44.869C151.619 48.0618 151.919 50.3306 152.52 51.6749C153.144 53.0191 153.901 53.6915 154.791 53.6915Z" fill="#101012"/>
<path d="M164.655 53.3312L166.658 52.791V36.9467L164.655 36.4065V35.8663H167.66C168.974 35.8663 170.009 36.3224 170.766 37.235C171.056 37.5947 171.301 38.0391 171.501 38.5672C171.835 37.8951 172.191 37.3549 172.57 36.9467C173.572 35.8663 174.718 35.3262 176.009 35.3262C177.301 35.3262 178.436 35.6386 179.416 36.2625C180.396 36.8626 181.152 37.6911 181.687 38.7473C182.021 38.0508 182.377 37.4868 182.756 37.0545C183.78 35.9025 184.926 35.3262 186.195 35.3262C187.375 35.3262 188.433 35.5901 189.368 36.1182C190.325 36.6469 191.06 37.3669 191.572 38.2792C192.107 39.1914 192.374 40.1877 192.374 41.268V52.791L194.378 53.3312V53.8714H190.036C188.032 53.8714 187.03 52.791 187.03 50.6307V41.268C187.03 39.7075 186.808 38.5431 186.362 37.7752C185.917 36.9825 185.416 36.5864 184.86 36.5864C184.214 36.5864 183.557 37.0666 182.889 38.027C182.622 38.4831 182.388 38.9633 182.188 39.4673V52.791L184.192 53.3312V53.8714H174.841V53.3312L176.844 52.791V41.268C176.844 39.7075 176.622 38.5431 176.177 37.7752C175.731 36.9825 175.23 36.5864 174.674 36.5864C174.028 36.5864 173.371 37.0666 172.703 38.027C172.436 38.4831 172.202 38.9633 172.002 39.4673V52.791L174.006 53.3312V53.8714H164.655V53.3312Z" fill="#101012"/>
<path fill-rule="evenodd" clip-rule="evenodd" d="M36.9377 60.7476C36.7223 60.7933 36.4989 60.8088 36.2724 60.7899C29.2769 60.2176 22.6555 56.0511 18.8829 49.0055C15.1102 41.9598 15.0746 33.6932 18.1129 26.8744C18.554 25.8845 19.5102 25.2892 20.5258 25.3723C23.1327 25.5856 25.6877 26.298 28.0627 27.4725C29.8547 23.7048 32.5061 20.4907 35.7378 18.1308C36.5811 17.515 37.6843 17.515 38.5276 18.1308C41.7155 20.4586 44.3384 23.6177 46.1292 27.3194C48.4141 26.2359 50.8581 25.5762 53.3498 25.3723C54.3655 25.2892 55.3216 25.8845 55.7626 26.8744C58.8009 33.6932 58.7653 41.9598 54.9928 49.0055C51.22 56.0511 44.5986 60.2176 37.6031 60.7899C37.3765 60.8088 37.1531 60.7933 36.9377 60.7476ZM42.0631 56.4763C46.2565 54.9386 49.9654 51.8182 52.3516 47.3615C55.528 41.4292 55.6316 34.4924 53.1829 28.6881C51.1724 28.8984 49.2043 29.4529 47.3582 30.3283C48.2587 32.9995 48.75 35.8826 48.75 38.89C48.75 45.7428 46.1981 51.9532 42.0631 56.4763ZM43.4293 28.8484C41.9333 25.7515 39.7659 23.0904 37.1327 21.0882C34.443 23.1333 32.2394 25.8658 30.7408 29.0479C33.126 30.6926 35.2449 32.8561 36.9377 35.492C38.7001 32.7479 40.9241 30.5161 43.4293 28.8484ZM38.6655 38.6814C40.1979 35.8632 42.2615 33.5857 44.6416 31.913C45.3285 34.1033 45.7006 36.4497 45.7006 38.89C45.7006 44.5231 43.7173 49.6575 40.4569 53.5249C41.3391 48.6393 40.8054 43.436 38.6655 38.6814ZM35.21 38.6814C33.7468 35.9896 31.7984 33.7918 29.5531 32.1423C28.9114 34.2668 28.5647 36.5347 28.5647 38.89C28.5647 44.2342 30.3497 49.1297 33.3169 52.9198C32.5833 48.2116 33.1581 43.2404 35.21 38.6814ZM36.9377 55.1318C38.0826 51.2063 38.1296 46.9245 36.9377 42.8649C35.7458 46.9245 35.7931 51.2063 36.9377 55.1318ZM21.5238 47.3615C24.0185 52.0206 27.9588 55.2196 32.3868 56.6763C28.1432 52.1371 25.5152 45.8442 25.5152 38.89C25.5152 35.9441 25.9867 33.1169 26.8528 30.4915C24.9102 29.5216 22.8254 28.9112 20.6926 28.6881C18.244 34.4924 18.3474 41.4292 21.5238 47.3615Z" fill="#101012"/>
</svg>
