<svg width="64" height="64" viewBox="0 0 64 64" fill="none" xmlns="http://www.w3.org/2000/svg">
<circle cx="32" cy="32" r="31.5" fill="white" stroke="#00404E"/>
<path d="M32 33.4L27.1 38.3C26.9167 38.4834 26.6834 38.575 26.4 38.575C26.1167 38.575 25.8834 38.4834 25.7 38.3C25.5167 38.1167 25.425 37.8834 25.425 37.6C25.425 37.3167 25.5167 37.0834 25.7 36.9L30.6 32L25.7 27.1C25.5167 26.9167 25.425 26.6834 25.425 26.4C25.425 26.1167 25.5167 25.8834 25.7 25.7C25.8834 25.5167 26.1167 25.425 26.4 25.425C26.6834 25.425 26.9167 25.5167 27.1 25.7L32 30.6L36.9 25.7C37.0834 25.5167 37.3167 25.425 37.6 25.425C37.8834 25.425 38.1167 25.5167 38.3 25.7C38.4834 25.8834 38.575 26.1167 38.575 26.4C38.575 26.6834 38.4834 26.9167 38.3 27.1L33.4 32L38.3 36.9C38.4834 37.0834 38.575 37.3167 38.575 37.6C38.575 37.8834 38.4834 38.1167 38.3 38.3C38.1167 38.4834 37.8834 38.575 37.6 38.575C37.3167 38.575 37.0834 38.4834 36.9 38.3L32 33.4Z" fill="#00404E"/>
</svg>
