<svg width="34" height="25" viewBox="0 0 34 25" fill="none" xmlns="http://www.w3.org/2000/svg">
<path d="M3.12119 6.60872L11.9272 2.79904C12.2586 2.62419 12.669 2.75106 12.8439 3.08249C13.0187 3.41387 12.8918 3.8243 12.5604 3.99913C12.5295 4.01542 12.4974 4.02936 12.4644 4.04068L5.16167 7.2052L30.1345 17.0956C30.4828 17.2336 30.6534 17.6278 30.5154 17.9762C30.3774 18.3246 29.9832 18.4952 29.6348 18.3572L4.66202 8.46679L7.8202 15.767C7.99505 16.0984 7.86819 16.5088 7.53675 16.6836C7.20532 16.8584 6.79494 16.7316 6.62011 16.4002C6.60382 16.3692 6.58989 16.3371 6.57857 16.3041L2.76891 7.49804C2.62178 7.15525 2.77915 6.75791 3.12119 6.60872Z" fill="#00404E"/>
</svg>
