<svg width="48" height="20" viewBox="0 0 48 20" fill="none" xmlns="http://www.w3.org/2000/svg">
<rect x="-0.5" y="0.5" width="47" height="19" rx="9.5" transform="matrix(-1 0 0 1 47 0)" fill="white" stroke="#00404E"/>
<path d="M16.1058 9.76342L19.742 6.12711C19.8727 5.97458 20.1022 5.9568 20.2547 6.08746C20.4073 6.21808 20.4251 6.44764 20.2944 6.60017C20.2822 6.61438 20.269 6.62767 20.2547 6.63982L17.2403 9.65795H31.6364C31.8372 9.65795 32 9.82076 32 10.0216C32 10.2224 31.8372 10.3852 31.6364 10.3852H17.2403L20.2547 13.3997C20.4073 13.5303 20.4251 13.7599 20.2944 13.9124C20.1637 14.0649 19.9342 14.0827 19.7817 13.9521C19.7675 13.9399 19.7542 13.9266 19.742 13.9124L16.1057 10.2761C15.9648 10.1343 15.9648 9.90526 16.1058 9.76342Z" fill="#00404E"/>
</svg>
