<svg width="64" height="64" viewBox="0 0 64 64" fill="none" xmlns="http://www.w3.org/2000/svg">
<circle cx="32" cy="32" r="31.5" stroke="#00404E"/>
<path d="M21.6389 24.8889H43.3611C43.7138 24.8889 44 24.6898 44 24.4444C44 24.1982 43.7138 24 43.3611 24H21.6389C21.2849 24 21 24.1982 21 24.4444C21 24.6898 21.2849 24.8889 21.6389 24.8889Z" fill="#00404E"/>
<path d="M43.3611 31.1111H21.6389C21.2849 31.1111 21 31.3093 21 31.5555C21 31.8008 21.2849 31.9999 21.6389 31.9999H43.3611C43.7138 31.9999 44 31.8008 44 31.5555C44 31.3093 43.7138 31.1111 43.3611 31.1111Z" fill="#00404E"/>
<path d="M43.3611 38.2222H21.6389C21.2849 38.2222 21 38.4204 21 38.6666C21 38.9119 21.2849 39.111 21.6389 39.111H43.3611C43.7138 39.111 44 38.9119 44 38.6666C44 38.4204 43.7138 38.2222 43.3611 38.2222Z" fill="#00404E"/>
</svg>
