<svg width="523" height="1024" viewBox="0 0 523 1024" fill="none" xmlns="http://www.w3.org/2000/svg">
<g opacity="0.06">
<path d="M493.145 641.028C444.944 540.14 325.587 490.078 219.863 435.636C73.1023 360.057 72.8937 316.67 72.8937 316.67C51.9576 475.755 93.7602 503.845 279.263 587.698C304.721 599.171 409.401 645.617 409.401 757.491C409.401 855.528 329.9 935.071 231.827 935.071C182.512 935.071 137.997 914.976 105.793 882.575C145.161 874.232 174.722 839.328 174.722 797.471C174.722 749.425 135.771 710.558 87.7784 710.558C39.7159 710.558 0.76511 749.495 0.76511 797.471L0.834666 800.182L0 800.669C5.35574 940.911 118.104 1024 259.718 1024C404.741 1024 522.358 906.424 522.358 761.454C522.358 718.067 511.786 677.114 493.145 641.028Z" fill="#084654"/>
<path d="M303.291 450.147C475.045 536.034 508.465 621.503 508.465 621.503C539.662 414.036 358.042 350.387 212.203 272.308C66.7128 194.438 67.1297 150.937 67.1297 150.937C43.9234 310.093 98.3956 347.738 303.291 450.147Z" fill="#084654"/>
<path d="M243.031 223.909C371.863 288.151 396.893 352.185 396.893 352.185C420.254 196.903 284.121 149.296 174.687 90.8303C65.5309 32.504 65.8785 0 65.8785 0C48.4969 119.089 89.3088 147.208 243.031 223.909Z" fill="#084654"/>
</g>
</svg>
