<svg width="48" height="20" viewBox="0 0 48 20" fill="none" xmlns="http://www.w3.org/2000/svg">
<rect x="0.5" y="0.5" width="47" height="19" rx="9.5" fill="white" stroke="#00404E"/>
<path d="M31.8942 9.76342L28.258 6.12711C28.1273 5.97458 27.8978 5.9568 27.7453 6.08746C27.5927 6.21808 27.5749 6.44764 27.7056 6.60017C27.7178 6.61438 27.731 6.62766 27.7453 6.63982L30.7597 9.65795H16.3636C16.1628 9.65795 16 9.82076 16 10.0216C16 10.2224 16.1628 10.3852 16.3636 10.3852H30.7597L27.7453 13.3997C27.5927 13.5303 27.5749 13.7599 27.7056 13.9124C27.8363 14.0649 28.0658 14.0827 28.2183 13.9521C28.2325 13.9399 28.2458 13.9266 28.258 13.9124L31.8943 10.2761C32.0352 10.1343 32.0352 9.90526 31.8942 9.76342Z" fill="#00404E"/>
</svg>
