<svg width="59" height="91" viewBox="0 0 59 91" fill="none" xmlns="http://www.w3.org/2000/svg">
<mask id="mask0_241_1836" style="mask-type:luminance" maskUnits="userSpaceOnUse" x="0" y="0" width="58" height="87">
<path d="M5.04354 0C2.25561 0 0 2.25561 0 5.04354V81.671C0 84.4589 2.25561 86.7145 5.04354 86.7145H52.7631C55.5511 86.7145 57.8067 84.4589 57.8067 81.671V5.04354C57.8067 2.25561 55.5511 0 52.7631 0H5.04354Z" fill="white"/>
</mask>
<g mask="url(#mask0_241_1836)">
<path d="M57.8067 0H0V86.7145H57.8067V0Z" fill="url(#paint0_linear_241_1836)"/>
</g>
<path d="M56.4898 57.933C52.4117 49.4068 42.3336 45.1753 33.4014 40.5739C21.0046 34.186 20.9865 30.5229 20.9865 30.5229C19.2182 43.9663 22.7459 46.3392 38.4179 53.4218C40.5652 54.3962 49.4162 58.321 49.4162 67.7765C49.4162 76.0591 42.7035 82.7808 34.4119 82.7808C30.2436 82.7808 26.4812 81.0846 23.7655 78.3417C27.0947 77.638 29.5849 74.6876 29.5849 71.1509C29.5849 67.0908 26.2917 63.8066 22.2407 63.8066C18.1806 63.8066 14.8874 67.0998 14.8874 71.1509L14.8964 71.3854L14.8333 71.4215C15.2844 83.277 24.8121 90.2964 36.7758 90.2964C49.0282 90.2964 58.9619 80.3628 58.9619 68.1103C58.9619 64.4382 58.0687 60.9736 56.4898 57.933Z" fill="white"/>
<path d="M40.4835 41.7738C55.0096 49.0098 57.8336 56.2187 57.8336 56.2187C60.4681 38.7333 45.112 33.374 32.7783 26.7876C20.4717 20.2193 20.5078 16.5562 20.5078 16.5562C18.55 29.9725 23.1514 33.1394 40.4835 41.7738Z" fill="white"/>
<path d="M35.3766 22.6553C46.2666 28.0778 48.3779 33.4822 48.3779 33.4822C50.3538 20.3726 38.8502 16.3577 29.6022 11.4224C20.3813 6.49615 20.4084 3.75333 20.4084 3.75333C18.9377 13.8043 22.3843 16.1862 35.3766 22.6553Z" fill="white"/>
<defs>
<linearGradient id="paint0_linear_241_1836" x1="-0.00281889" y1="43.3575" x2="57.8129" y2="43.3575" gradientUnits="userSpaceOnUse">
<stop stop-color="#0084AA"/>
<stop offset="0.0158" stop-color="#0084AA"/>
<stop offset="1" stop-color="#004A5F"/>
</linearGradient>
</defs>
</svg>
